<?xml version="1.0" standalone="no"?>
<!DOCTYPE svg PUBLIC "-//W3C//DTD SVG 20010904//EN"
 "http://www.w3.org/TR/2001/REC-SVG-20010904/DTD/svg10.dtd">
<svg version="1.0" xmlns="http://www.w3.org/2000/svg"
 width="640.000000pt" height="480.000000pt" viewBox="0 0 640.000000 480.000000"
 preserveAspectRatio="xMidYMid meet">

<g transform="translate(0.000000,480.000000) scale(0.100000,-0.100000)"
fill="#000000" stroke="none">
<path d="M2985 4004 c-27 -9 -57 -22 -65 -30 -13 -13 0 -14 105 -10 133 6 185
0 185 -19 0 -9 11 -13 29 -13 42 1 56 -10 37 -31 -12 -14 -13 -20 -3 -30 9 -9
9 -14 -3 -21 -13 -8 -13 -10 1 -10 12 0 15 -7 11 -25 -3 -20 0 -25 17 -25 16
0 21 7 22 28 l1 27 7 -30 c6 -30 11 -32 71 -37 8 0 20 -4 25 -8 6 -4 25 -11
43 -15 18 -4 36 -13 39 -21 3 -8 9 -11 14 -8 5 3 23 -6 40 -20 17 -14 37 -26
45 -26 9 0 12 -4 9 -10 -3 -5 12 -27 35 -48 22 -22 40 -45 40 -52 0 -8 3 -10
6 -7 8 7 39 -46 85 -143 17 -36 38 -78 45 -93 19 -38 69 -243 84 -342 6 -44
14 -90 17 -102 4 -19 1 -23 -18 -23 -49 0 -71 12 -65 33 5 21 -22 77 -37 77
-5 0 -6 -11 -3 -25 5 -20 3 -25 -11 -25 -13 -1 -9 -6 12 -17 26 -14 28 -17 11
-23 -11 -3 -81 -5 -158 -3 -91 3 -138 0 -138 -7 0 -6 37 -10 98 -10 98 0 225
-14 246 -27 6 -4 16 -8 23 -8 11 0 46 -29 71 -59 18 -22 32 -20 29 5 -1 12 3
24 10 26 8 3 10 -6 6 -30 -4 -25 -1 -36 11 -40 22 -9 46 19 46 52 0 35 -13 46
-71 61 l-46 12 -7 76 c-15 176 -26 231 -66 338 -23 60 -50 138 -60 174 -24 87
-61 149 -118 200 -48 42 -51 45 -82 77 -30 29 -48 43 -60 43 -5 0 -10 7 -10
15 0 8 -5 15 -11 15 -6 0 -8 7 -5 16 4 12 2 15 -9 11 -8 -4 -17 -1 -21 4 -3 6
-17 8 -30 5 -17 -5 -24 -2 -24 8 0 8 -7 16 -15 20 -8 3 -15 17 -15 32 0 17 -6
28 -19 31 -11 3 -22 11 -25 18 -6 16 -74 50 -83 41 -4 -3 -13 0 -22 8 -20 16
-119 36 -180 35 -25 0 -68 -7 -96 -15z m373 -85 c23 -23 39 -46 36 -50 -9 -15
-24 -10 -24 8 0 15 -1 15 -13 -2 -10 -13 -16 -15 -21 -6 -4 6 -2 19 5 27 16
20 3 30 -17 13 -15 -12 -16 -12 -10 7 5 16 1 24 -16 32 -22 10 -22 11 -2 11
11 1 39 -18 62 -40z m-48 -39 c0 -5 -4 -10 -10 -10 -5 0 -10 5 -10 10 0 6 5
10 10 10 6 0 10 -4 10 -10z m107 -46 c-3 -3 -12 -4 -19 -1 -8 3 -5 6 6 6 11 1
17 -2 13 -5z"/>
<path d="M2987 3934 c-3 -4 -25 -8 -49 -11 -69 -6 -87 -11 -135 -37 -25 -14
-52 -26 -59 -26 -8 0 -16 -11 -20 -25 -4 -14 -9 -24 -12 -21 -3 3 -12 0 -20
-6 -7 -7 -23 -14 -35 -15 -12 -2 -24 -7 -27 -11 -3 -4 -16 -13 -30 -20 -57
-28 -86 -50 -97 -74 -7 -14 -31 -44 -53 -67 -22 -22 -40 -43 -40 -46 0 -3 -14
-19 -30 -35 -17 -17 -25 -30 -18 -30 7 0 6 -5 -4 -12 -14 -12 -37 -55 -51
-100 -4 -10 -2 -20 3 -23 6 -3 5 -16 0 -31 -5 -13 -12 -37 -15 -52 -3 -15 -7
-32 -9 -39 -1 -7 -10 -20 -19 -31 -9 -10 -21 -40 -26 -65 -5 -26 -9 -48 -9
-50 0 -1 -6 -15 -12 -31 -6 -16 -12 -46 -14 -65 -2 -20 -8 -54 -14 -76 -6 -22
-13 -87 -17 -144 -5 -101 -4 -105 21 -138 23 -30 26 -41 20 -79 -4 -29 -2 -44
5 -44 6 0 9 7 5 15 -3 8 -2 15 2 15 12 0 12 104 -1 112 -8 4 3 20 30 45 23 21
45 51 48 66 9 36 -2 47 -14 15 -10 -27 -77 -72 -86 -58 -3 5 2 13 12 19 15 8
16 15 8 48 -13 49 -8 90 11 97 10 4 14 1 12 -6 -4 -11 14 -38 24 -38 9 0 6
145 -3 156 -7 8 -7 14 1 19 15 10 12 46 -7 67 -11 12 -12 18 -3 18 7 0 10 7 6
15 -3 8 3 31 14 50 11 20 20 44 20 55 0 11 5 20 10 20 6 0 10 5 10 12 0 6 9
30 19 52 11 23 34 75 51 116 41 95 75 144 136 198 27 23 56 48 64 56 8 7 32
19 52 25 21 7 41 18 45 26 12 21 41 22 55 2 12 -16 18 -17 43 -6 17 6 43 11
58 10 17 -1 26 3 22 9 -4 6 8 11 29 12 50 2 81 5 159 13 48 6 67 4 67 -4 0 -6
7 -11 15 -11 8 0 15 5 15 11 0 8 13 9 40 5 34 -5 39 -4 33 11 -5 13 -2 15 15
11 12 -4 25 -2 28 3 3 5 -2 9 -11 9 -9 0 -13 5 -10 10 10 16 -21 12 -35 -5
-14 -17 -35 -21 -25 -5 3 6 -3 10 -14 10 -10 0 -21 -5 -23 -11 -2 -7 -13 -9
-26 -5 -12 4 -20 12 -17 17 4 5 -3 9 -14 9 -10 0 -26 3 -35 6 -12 4 -16 0 -16
-16 0 -12 -4 -18 -11 -15 -6 4 -8 13 -5 21 6 16 -5 19 -20 4 -13 -13 -51 -2
-58 17 -3 8 -1 11 4 8 6 -3 10 1 10 10 0 9 4 14 9 11 14 -9 46 33 35 44 -6 6
-13 7 -17 4z m-37 -38 c0 -3 -4 -8 -10 -11 -5 -3 -10 -1 -10 4 0 6 5 11 10 11
6 0 10 -2 10 -4z m-91 -53 c-10 -12 -10 -16 1 -23 9 -5 19 -5 26 1 8 7 14 6
19 -1 9 -15 5 -19 -33 -26 -25 -5 -32 -3 -32 10 0 19 -16 21 -27 4 -11 -18
-46 -36 -60 -31 -19 7 -16 23 5 23 21 1 52 23 52 39 0 13 40 31 53 24 4 -3 2
-11 -4 -20z m-72 -9 c-3 -3 -12 -4 -19 -1 -8 3 -5 6 6 6 11 1 17 -2 13 -5z
m290 -10 c-3 -3 -12 -4 -19 -1 -8 3 -5 6 6 6 11 1 17 -2 13 -5z"/>
<path d="M3055 3930 c-3 -5 -1 -10 4 -10 6 0 11 5 11 10 0 6 -2 10 -4 10 -3 0
-8 -4 -11 -10z"/>
<path d="M3160 3888 c1 -18 25 -48 39 -48 15 0 14 6 -5 35 -17 27 -34 33 -34
13z"/>
<path d="M2952 3104 c-8 -9 -24 -12 -45 -9 -41 8 -76 -11 -70 -36 3 -10 1 -19
-4 -19 -16 0 -32 22 -26 36 3 8 0 14 -6 14 -6 0 -11 -5 -11 -11 0 -13 -20 -34
-40 -42 -10 -3 -7 -6 8 -6 12 -1 31 -6 41 -12 14 -9 25 -9 49 2 17 7 29 16 27
20 -3 3 8 4 23 2 21 -4 24 -2 12 6 -17 11 -14 16 18 25 13 5 22 3 22 -3 0 -6
5 -11 11 -11 6 0 9 7 5 15 -3 8 -1 15 3 15 5 0 12 -7 15 -16 3 -8 10 -12 16
-9 7 4 7 12 0 24 -13 25 -33 31 -48 15z"/>
<path d="M2660 3095 c0 -8 4 -15 9 -15 5 0 14 7 21 15 10 13 9 15 -9 15 -12 0
-21 -6 -21 -15z"/>
<path d="M3030 3087 c0 -8 7 -17 15 -21 8 -3 15 -3 15 0 0 3 -7 12 -15 20 -13
13 -15 13 -15 1z"/>
<path d="M3543 3075 c-4 -13 2 -24 19 -37 17 -12 24 -25 21 -36 -4 -16 2 -19
36 -20 29 -1 41 2 41 12 0 8 -6 16 -12 19 -10 3 -10 8 -2 17 20 20 5 50 -25
50 -14 0 -36 3 -48 6 -16 5 -25 1 -30 -11z m37 -15 c0 -5 -4 -10 -10 -10 -5 0
-10 5 -10 10 0 6 5 10 10 10 6 0 10 -4 10 -10z"/>
<path d="M3360 3049 c0 -31 1 -32 16 -17 16 15 16 18 0 33 -15 15 -16 14 -16
-16z"/>
<path d="M2728 3053 c6 -2 18 -2 25 0 6 3 1 5 -13 5 -14 0 -19 -2 -12 -5z"/>
<path d="M3690 3050 c0 -5 5 -10 10 -10 6 0 10 -7 10 -15 0 -8 9 -15 19 -15
23 0 36 -17 36 -44 0 -27 21 -31 28 -6 9 34 -41 99 -75 100 -16 0 -28 -4 -28
-10z"/>
<path d="M2970 3040 c0 -5 7 -10 16 -10 8 0 12 5 9 10 -3 6 -10 10 -16 10 -5
0 -9 -4 -9 -10z"/>
<path d="M3356 3001 c-4 -7 -5 -15 -2 -18 9 -9 19 4 14 18 -4 11 -6 11 -12 0z"/>
<path d="M3466 3001 c-4 -7 -5 -15 -2 -18 9 -9 19 4 14 18 -4 11 -6 11 -12 0z"/>
<path d="M2546 2962 c-3 -5 -40 -12 -83 -15 -69 -6 -81 -10 -100 -34 -12 -15
-20 -30 -18 -33 2 -4 -4 -13 -14 -22 -25 -21 -17 -88 10 -88 23 0 25 16 3 24
-8 3 -12 11 -8 17 3 6 0 16 -7 21 -11 8 -10 9 3 4 10 -3 20 -1 23 4 7 11 40
-3 62 -26 11 -10 10 -15 -2 -28 -22 -21 -19 -28 13 -24 21 2 27 8 25 26 -3 28
27 90 57 117 21 19 35 20 211 19 104 -1 189 2 189 7 0 14 -65 22 -200 23 -74
1 -140 5 -147 9 -6 4 -14 3 -17 -1z m-99 -53 c13 -13 6 -46 -12 -53 -8 -3 -15
6 -18 22 -8 40 7 54 30 31z"/>
<path d="M3516 2933 c-6 -14 -5 -15 5 -6 7 7 10 15 7 18 -3 3 -9 -2 -12 -12z"/>
<path d="M3360 2903 c0 -13 5 -23 10 -23 13 0 13 11 0 30 -8 12 -10 11 -10 -7z"/>
<path d="M3410 2900 c0 -5 7 -7 15 -4 8 4 15 8 15 10 0 2 -7 4 -15 4 -8 0 -15
-4 -15 -10z"/>
<path d="M3010 2890 c0 -5 7 -10 15 -10 8 0 15 5 15 10 0 6 -7 10 -15 10 -8 0
-15 -4 -15 -10z"/>
<path d="M3052 2878 c8 -23 71 -47 92 -36 18 10 17 12 -15 29 -40 21 -83 25
-77 7z"/>
<path d="M3490 2859 c0 -5 5 -7 10 -4 6 3 10 8 10 11 0 2 -4 4 -10 4 -5 0 -10
-5 -10 -11z"/>
<path d="M2607 2842 c-10 -10 -17 -28 -17 -40 0 -12 -4 -22 -10 -22 -5 0 -10
5 -10 10 0 6 -4 10 -9 10 -18 0 2 -41 29 -60 34 -24 40 -25 40 -4 0 13 3 14
14 5 17 -14 31 2 22 24 -6 17 19 45 40 45 9 0 14 -10 14 -28 0 -33 23 -57 63
-67 23 -6 34 -2 58 21 19 18 27 34 23 46 -9 28 38 23 67 -8 l24 -25 -24 -18
-24 -18 24 -6 c12 -3 29 -1 36 5 7 5 19 8 28 5 8 -4 17 -2 20 3 8 13 -25 58
-47 65 -10 4 -15 13 -12 23 5 15 4 15 -5 2 -8 -10 -13 -12 -18 -4 -8 10 -42
22 -88 28 -11 2 -27 7 -36 10 -16 7 -65 3 -125 -9 -23 -5 -33 -3 -37 9 -8 21
-20 20 -40 -2z m203 -68 c0 -11 -5 -14 -16 -10 -9 3 -18 6 -20 6 -3 0 -2 5 1
10 10 16 35 12 35 -6z"/>
<path d="M3340 2838 c-14 -5 -56 -8 -95 -6 -42 2 -70 -1 -70 -7 0 -6 11 -12
25 -13 14 -2 37 -15 52 -29 14 -14 29 -25 32 -24 17 3 19 0 8 -11 -7 -7 -12
-22 -12 -34 0 -21 29 -145 35 -152 2 -2 10 11 19 28 12 25 13 42 6 80 -6 32
-6 59 1 79 6 17 9 36 7 43 -5 14 10 32 32 40 12 4 12 5 -1 10 -7 3 -25 1 -39
-4z m-14 -163 c4 -14 4 -29 0 -32 -3 -4 -6 5 -7 18 l-1 24 -8 -25 c-8 -24 -8
-23 -9 8 -1 38 16 43 25 7z"/>
<path d="M2990 2820 c0 -5 5 -10 10 -10 6 0 10 5 10 10 0 6 -4 10 -10 10 -5 0
-10 -4 -10 -10z"/>
<path d="M3160 2799 c12 -9 11 -10 -7 -6 -20 5 -23 1 -23 -28 0 -18 -9 -61
-19 -94 -10 -34 -15 -64 -10 -67 11 -7 -12 -44 -28 -44 -7 0 -13 -6 -13 -12 0
-7 -14 -29 -30 -48 -16 -19 -30 -38 -30 -41 0 -32 -216 -44 -350 -19 -36 6
-71 12 -77 12 -7 1 -13 5 -13 10 0 4 -7 8 -15 8 -21 0 -67 86 -71 131 -3 48
-23 111 -33 105 -4 -3 -4 -34 0 -69 7 -70 42 -155 68 -165 9 -3 24 -13 34 -22
20 -19 101 -39 197 -50 85 -9 266 5 283 22 18 18 83 130 92 158 4 13 18 44 31
68 13 25 24 62 24 83 0 22 5 39 10 39 16 0 11 27 -6 34 -24 9 -31 7 -14 -5z"/>
<path d="M3745 2800 c3 -5 8 -10 11 -10 2 0 4 5 4 10 0 6 -5 10 -11 10 -5 0
-7 -4 -4 -10z"/>
<path d="M3546 2792 c-26 -6 -47 -27 -42 -44 2 -7 7 -25 10 -39 6 -26 29 -38
79 -44 25 -2 57 41 57 77 0 20 4 28 13 24 6 -3 20 -9 30 -12 9 -4 17 -13 17
-20 0 -8 4 -14 10 -14 5 0 7 -13 4 -29 -5 -23 -2 -29 15 -34 12 -3 19 -1 16 3
-3 5 -1 11 5 15 5 3 10 -3 10 -14 0 -25 15 -28 24 -5 9 24 7 66 -3 60 -5 -4
-7 2 -5 11 3 10 -2 27 -10 38 -15 20 -15 19 -16 -5 -1 -14 -4 -19 -7 -12 -14
35 -131 60 -207 44z m50 -38 c-3 -9 -6 -22 -6 -30 0 -16 -26 -19 -35 -4 -6 10
24 48 39 49 4 1 5 -6 2 -15z"/>
<path d="M2535 2760 c3 -5 8 -10 11 -10 2 0 4 5 4 10 0 6 -5 10 -11 10 -5 0
-7 -4 -4 -10z"/>
<path d="M3428 2763 c-16 -4 -33 -32 -24 -40 7 -7 86 29 86 39 0 8 -33 9 -62
1z"/>
<path d="M3424 2709 c-7 -12 -5 -15 24 -23 27 -9 28 -5 2 16 -12 11 -22 13
-26 7z"/>
<path d="M3965 2712 c-6 -4 -11 -20 -11 -37 -2 -88 -9 -134 -26 -167 -12 -24
-14 -39 -7 -43 5 -4 15 7 22 24 24 63 30 31 23 -116 -4 -82 -7 -170 -7 -198 1
-145 1 -132 -14 -213 -4 -24 -14 -46 -21 -49 -8 -3 -14 -11 -14 -19 0 -8 -4
-14 -10 -14 -5 0 -10 -5 -10 -11 0 -6 7 -9 15 -6 8 4 17 2 20 -3 4 -6 1 -10
-5 -10 -6 0 -8 -4 -5 -10 3 -5 1 -10 -4 -10 -6 0 -11 -11 -11 -24 0 -15 -7
-26 -16 -28 -16 -3 -54 -88 -54 -120 0 -10 -6 -18 -14 -18 -15 0 -26 -20 -27
-53 0 -21 -1 -21 -9 -2 -7 17 -9 15 -9 -12 -1 -18 3 -33 8 -33 4 0 6 -12 3
-26 -3 -19 -7 -22 -13 -12 -6 9 -9 6 -9 -10 0 -13 4 -21 9 -17 5 3 12 1 16 -4
3 -6 12 -8 19 -5 8 3 16 -4 20 -20 7 -30 59 -83 76 -78 9 3 9 -1 1 -16 -11
-21 -1 -67 15 -67 5 0 8 -10 7 -22 -2 -24 31 -51 42 -34 3 5 1 12 -5 16 -13 8
-3 25 16 25 8 0 14 -9 14 -19 0 -11 5 -23 10 -26 6 -4 10 6 10 22 1 26 1 27
12 8 6 -11 22 -30 35 -42 12 -12 23 -29 23 -38 0 -20 27 -19 38 1 8 14 11 14
27 -7 11 -15 15 -17 12 -7 -4 10 -2 28 3 40 9 22 9 22 9 -3 1 -24 31 -52 31
-29 0 18 29 10 35 -9 6 -20 31 -36 65 -40 6 0 10 -8 10 -17 0 -8 5 -12 10 -9
6 3 10 1 10 -4 0 -18 28 -12 32 6 3 16 6 15 27 -6 14 -14 26 -20 28 -14 2 6
13 9 23 6 11 -3 18 -9 15 -13 -3 -5 -1 -11 5 -15 5 -3 10 1 10 10 0 9 5 13 10
10 6 -4 8 -10 5 -15 -3 -4 3 -6 12 -4 10 3 43 -2 73 -10 52 -14 53 -15 20 -17
-19 -1 -41 -2 -47 -2 -7 1 -13 -3 -13 -8 0 -5 24 -9 53 -9 30 0 62 -6 74 -15
11 -8 43 -17 69 -20 27 -3 54 -13 61 -22 7 -8 19 -13 27 -10 8 3 16 2 18 -3 2
-5 14 -11 28 -13 14 -2 33 -7 43 -12 9 -4 29 -5 43 -2 30 5 84 -12 84 -28 0
-5 5 -3 10 5 7 12 11 8 16 -17 4 -18 10 -30 15 -27 5 3 12 -2 15 -10 6 -16 16
-16 89 0 28 6 29 5 15 -12 -14 -16 -13 -17 4 -11 15 6 17 5 7 -7 -9 -11 -8
-14 5 -12 9 0 21 -8 28 -19 6 -11 17 -24 24 -28 7 -5 10 -12 7 -18 -4 -5 -2
-9 2 -9 5 0 10 -12 11 -27 1 -15 8 -30 15 -35 14 -9 50 0 55 13 2 5 8 6 14 3
6 -4 5 -10 -3 -15 -10 -6 -9 -10 6 -15 32 -12 68 -52 61 -69 -3 -8 -1 -15 4
-15 5 0 7 -7 4 -15 -4 -8 -1 -15 5 -15 6 0 11 -11 11 -25 0 -32 -30 -48 -64
-35 -28 10 -35 0 -12 -19 9 -7 27 -8 52 -3 37 8 39 10 39 45 0 45 18 48 35 7
7 -16 16 -27 21 -24 5 3 9 -4 9 -14 0 -11 7 -23 16 -26 10 -4 14 -14 11 -26
-3 -13 0 -20 9 -20 15 0 36 -33 33 -53 -4 -30 4 -44 41 -70 36 -26 40 -26 50
-10 11 17 11 17 6 0 -4 -13 -1 -18 12 -16 40 4 51 -2 62 -36 12 -38 30 -47 30
-16 0 10 -10 28 -22 39 -64 57 -85 81 -108 122 -13 25 -38 60 -54 78 -17 19
-48 59 -70 90 -21 31 -56 76 -77 99 -22 24 -39 47 -39 52 0 5 -15 19 -34 31
-19 11 -61 45 -93 75 -32 30 -61 55 -64 55 -3 0 -18 11 -32 24 -41 38 -186
103 -262 117 -38 7 -74 15 -80 19 -5 4 -50 19 -100 35 -49 15 -105 34 -123 41
-18 8 -41 14 -52 14 -17 0 -71 21 -131 50 -9 5 -37 11 -63 15 -25 4 -46 12
-46 17 0 6 -13 8 -30 6 -24 -4 -30 -1 -30 14 0 10 -7 18 -15 18 -9 0 -15 -6
-14 -12 3 -25 -1 -39 -10 -34 -5 3 -7 15 -4 25 5 20 -27 38 -47 26 -5 -3 -10
1 -10 9 0 9 -15 20 -37 26 -21 6 -47 17 -57 25 -11 8 -31 15 -44 15 -29 0 -41
12 -83 81 -18 30 -57 77 -86 106 -29 29 -53 59 -53 67 0 25 12 46 26 46 8 0
17 13 20 29 3 15 16 40 29 53 14 15 26 45 30 72 5 29 12 46 21 46 9 0 14 12
15 33 1 56 10 122 17 127 9 6 12 49 11 165 0 58 6 106 16 135 10 29 12 46 5
48 -14 5 -13 39 2 44 7 3 11 28 9 73 -2 72 -13 105 -35 105 -32 0 -26 142 8
179 9 10 16 21 16 24 0 9 -42 9 -55 -1z m42 -314 c-3 -8 -6 -5 -6 6 -1 11 2
17 5 13 3 -3 4 -12 1 -19z m1638 -2107 c-2 -2 -11 3 -19 12 -8 8 -12 17 -9 21
3 3 12 -2 19 -12 7 -9 11 -19 9 -21z"/>
<path d="M2050 2621 c-23 -6 -25 -12 -25 -61 0 -44 3 -55 18 -58 11 -2 17 3
17 17 0 11 5 23 10 26 6 4 8 10 5 14 -2 5 2 17 10 27 29 39 18 50 -35 35z"/>
<path d="M3332 2555 c-9 -19 -8 -34 4 -70 9 -25 20 -45 26 -45 6 0 8 -9 5 -20
-3 -13 0 -20 10 -20 8 0 12 -4 9 -8 -2 -4 -1 -14 4 -22 7 -11 3 -18 -12 -26
-21 -11 -20 -12 10 -19 18 -3 31 -10 28 -13 -2 -4 3 -20 10 -37 10 -25 14 -27
19 -12 4 9 4 25 -1 35 -4 9 -6 21 -5 26 1 4 -5 13 -12 20 -8 6 -17 19 -20 29
-5 13 -1 17 16 18 12 1 25 1 30 0 12 -2 8 5 -23 40 -17 19 -40 60 -51 92 -12
31 -25 57 -29 57 -4 0 -12 -11 -18 -25z"/>
<path d="M2160 2543 c1 -14 27 -43 33 -37 8 9 -11 44 -23 44 -6 0 -10 -3 -10
-7z"/>
<path d="M3840 2524 c0 -8 5 -12 10 -9 6 3 10 10 10 16 0 5 -4 9 -10 9 -5 0
-10 -7 -10 -16z"/>
<path d="M2210 2480 c-13 -8 -13 -10 2 -10 9 0 20 5 23 10 8 13 -5 13 -25 0z"/>
<path d="M2164 2425 c-3 -8 -3 -19 1 -24 3 -7 0 -8 -9 -5 -13 5 -14 1 -5 -24
9 -27 12 -29 34 -18 13 6 21 14 19 18 -3 4 5 17 16 28 11 11 18 25 15 30 -10
16 -65 12 -71 -5z m46 -5 c0 -5 -5 -10 -11 -10 -5 0 -7 5 -4 10 3 6 8 10 11
10 2 0 4 -4 4 -10z"/>
<path d="M3871 2414 c-40 -28 -123 -44 -236 -44 -80 0 -106 -3 -98 -11 8 -8
56 -10 150 -7 123 3 143 6 181 28 23 13 42 30 42 37 0 17 -11 16 -39 -3z"/>
<path d="M2984 2378 c-10 -13 -12 -17 -4 -11 10 8 21 9 30 3 8 -6 20 -10 25
-10 6 1 2 5 -8 11 -9 6 -15 14 -12 20 12 18 -12 8 -31 -13z"/>
<path d="M2219 2338 c-1 -7 -1 -16 0 -20 0 -5 -6 -8 -14 -8 -8 0 -15 -9 -15
-20 0 -14 5 -18 18 -13 11 4 6 -4 -12 -23 -19 -19 -30 -25 -33 -16 -5 14 -43
16 -43 2 0 -5 6 -10 14 -10 35 0 45 -53 45 -244 1 -15 5 -34 12 -42 6 -7 8
-22 4 -34 -4 -12 -1 -27 5 -35 7 -8 10 -22 6 -30 -3 -8 -1 -15 4 -15 6 0 10
-16 10 -36 0 -21 4 -33 10 -29 6 3 10 -3 10 -14 0 -12 4 -21 9 -21 5 0 11 -19
15 -42 4 -23 12 -48 18 -55 5 -7 8 -19 5 -27 -4 -9 2 -17 15 -21 15 -5 17 -10
9 -18 -9 -9 -14 -8 -21 3 -9 13 -13 11 -30 -10 -23 -30 -41 -86 -33 -106 3 -8
0 -14 -7 -14 -15 0 -9 -42 8 -48 7 -2 12 6 12 20 l1 23 19 -24 c21 -25 26 -51
10 -51 -5 0 -7 -7 -4 -15 4 -8 1 -15 -5 -15 -7 0 -11 -10 -10 -22 1 -13 1 -34
0 -48 -1 -20 -3 -22 -11 -10 -13 20 -14 -33 -1 -77 6 -19 5 -35 -1 -41 -6 -6
-4 -26 7 -58 9 -27 17 -64 18 -81 0 -18 5 -33 9 -33 4 0 8 -11 8 -24 0 -13 7
-27 16 -30 23 -9 24 -6 17 38 -4 26 -10 35 -19 32 -11 -4 -14 9 -14 59 0 36
-4 65 -10 65 -5 0 -7 14 -4 33 9 52 12 56 34 50 19 -5 20 -6 3 -20 -13 -10
-15 -16 -5 -19 6 -3 13 -18 13 -32 1 -22 3 -20 8 9 4 20 6 65 5 99 -1 34 4 79
11 100 16 44 12 113 -5 118 -16 6 -50 40 -50 51 0 18 42 61 60 61 21 0 35 16
22 24 -5 3 -7 29 -6 59 3 52 2 54 -21 51 -22 -2 -23 0 -14 18 6 11 8 22 5 26
-3 3 -6 0 -6 -7 0 -7 -5 -9 -10 -6 -6 4 -8 10 -5 15 3 4 -2 27 -11 51 -8 24
-13 58 -10 74 2 17 2 24 -1 18 -11 -29 -20 -10 -16 35 2 26 5 62 6 80 1 18 9
37 17 42 13 8 13 11 1 22 -11 10 -14 10 -18 1 -3 -7 -12 -13 -20 -13 -14 0
-14 2 0 18 21 23 21 48 1 103 -9 24 -16 77 -16 117 0 39 -5 72 -9 72 -5 0 -10
-6 -10 -12z m-14 -227 c3 -5 1 -12 -5 -16 -5 -3 -10 1 -10 9 0 18 6 21 15 7z
m44 -112 c-10 -6 -11 -9 -1 -9 6 0 12 -6 12 -14 0 -9 -9 -14 -20 -13 -24 2
-23 -1 -9 31 7 14 16 23 22 19 5 -3 3 -9 -4 -14z"/>
<path d="M2970 2340 c0 -5 5 -10 10 -10 6 0 10 5 10 10 0 6 -4 10 -10 10 -5 0
-10 -4 -10 -10z"/>
<path d="M3538 2333 c6 -2 18 -2 25 0 6 3 1 5 -13 5 -14 0 -19 -2 -12 -5z"/>
<path d="M2102 2288 c6 -18 28 -21 28 -4 0 9 -7 16 -16 16 -9 0 -14 -5 -12
-12z"/>
<path d="M2900 2270 c0 -5 7 -10 16 -10 8 0 12 5 9 10 -3 6 -10 10 -16 10 -5
0 -9 -4 -9 -10z"/>
<path d="M2998 2219 c-34 -20 -17 -29 52 -29 40 0 70 -4 70 -10 0 -13 27 -13
35 0 9 14 -69 50 -107 50 -18 0 -41 -5 -50 -11z"/>
<path d="M3306 2194 c-37 -21 -20 -44 19 -26 14 7 30 12 35 12 15 0 12 -28 -2
-33 -9 -3 -6 -7 6 -12 13 -6 23 -3 32 9 11 16 9 21 -13 42 -30 28 -38 29 -77
8z"/>
<path d="M2940 2186 c0 -2 7 -9 15 -16 13 -11 14 -10 9 4 -5 14 -24 23 -24 12z"/>
<path d="M2041 2169 c-1 -9 7 -23 17 -30 15 -12 16 -12 6 1 -6 8 -14 22 -17
30 -5 13 -6 12 -6 -1z"/>
<path d="M2076 2095 c4 -8 8 -15 10 -15 2 0 4 7 4 15 0 8 -4 15 -10 15 -5 0
-7 -7 -4 -15z"/>
<path d="M3022 2089 c-13 -5 -29 -6 -34 -2 -7 3 -8 1 -4 -5 4 -7 2 -13 -3 -13
-26 -3 -30 -4 -36 -11 -4 -4 -14 -4 -23 -1 -11 5 -14 2 -9 -10 8 -21 -10 -32
-27 -18 -10 8 -17 7 -26 -4 -8 -10 -24 -13 -48 -10 -46 5 -65 -6 -81 -48 -8
-20 -24 -38 -35 -42 -13 -4 -16 -8 -8 -12 21 -8 14 -36 -8 -30 -13 3 -20 0
-20 -10 0 -8 5 -11 10 -8 6 3 15 3 21 -1 8 -4 7 -9 -2 -15 -11 -7 -10 -9 4 -9
16 0 21 10 18 37 -1 9 7 9 30 3 40 -12 46 -17 31 -32 -9 -9 -17 -10 -30 -2
-13 9 -19 6 -29 -14 -7 -13 -13 -33 -13 -44 0 -22 -22 -48 -41 -48 -8 0 -8 -4
2 -16 11 -13 10 -17 -4 -25 -9 -6 -17 -21 -17 -34 0 -21 5 -25 28 -25 37 0 60
15 37 24 -9 3 -22 3 -28 -1 -7 -3 -4 3 6 14 9 11 17 25 17 31 0 6 10 12 22 14
15 2 24 13 30 36 5 17 13 32 18 32 6 0 10 7 10 16 0 15 23 44 34 44 3 0 5 -6
3 -12 -1 -7 5 -12 13 -10 8 2 26 4 40 5 15 2 25 9 25 17 0 11 -12 15 -47 14
-47 -2 -63 8 -33 20 8 3 14 9 13 13 -6 28 49 85 86 89 40 3 75 19 84 38 10 20
11 20 13 1 1 -11 1 -23 0 -27 -2 -13 17 -9 33 7 8 8 20 15 26 15 8 0 10 9 6
25 -5 18 -2 25 8 25 7 0 20 7 27 17 13 15 12 15 -8 2 -18 -11 -25 -11 -35 -1
-14 14 -15 14 -46 1z m-32 -59 c0 -5 -7 -10 -15 -10 -8 0 -15 5 -15 10 0 6 7
10 15 10 8 0 15 -4 15 -10z m-185 -66 c-15 -15 -15 -19 -3 -28 13 -9 12 -14
-4 -30 -16 -17 -21 -18 -45 -6 -16 7 -23 15 -15 17 6 3 12 10 12 16 0 19 53
68 63 58 6 -6 3 -16 -8 -27z"/>
<path d="M3136 2083 c-3 -8 -6 -24 -6 -36 0 -16 -3 -18 -9 -9 -6 10 -12 7 -25
-12 -14 -23 -14 -26 -1 -26 8 0 15 6 15 13 0 8 4 7 10 -3 14 -22 12 -30 -5
-23 -9 3 -21 -2 -28 -11 -7 -9 -22 -18 -35 -19 -39 -3 -18 -21 29 -24 24 -2
56 -5 71 -6 14 -1 24 -5 21 -9 -6 -12 5 -10 26 4 15 9 26 9 47 0 14 -7 29 -10
32 -7 3 3 -1 5 -9 5 -12 0 -12 2 0 9 12 8 10 11 -11 16 -20 5 -24 11 -20 31 3
17 0 24 -11 24 -15 0 -47 51 -47 75 0 19 -38 25 -44 8z m48 -104 c-3 -5 -10
-7 -15 -3 -5 3 -7 10 -3 15 3 5 10 7 15 3 5 -3 7 -10 3 -15z"/>
<path d="M3280 2070 c0 -10 10 -25 23 -31 12 -6 31 -23 43 -37 17 -21 23 -23
41 -13 32 17 38 13 18 -9 -10 -12 -25 -18 -32 -16 -7 3 -13 0 -13 -7 0 -8 -3
-7 -9 2 -5 8 -21 15 -35 17 -23 2 -26 -1 -26 -27 0 -30 23 -41 33 -16 4 10 6
10 6 0 1 -18 26 -16 41 2 16 19 30 19 30 1 0 -7 7 -19 16 -27 13 -11 15 -9 12
17 -2 20 1 29 12 29 8 0 14 -8 14 -17 -1 -10 4 -18 12 -18 8 0 11 6 8 15 -4 8
-2 15 4 15 5 0 15 -7 22 -15 15 -18 46 -20 53 -2 4 10 6 10 6 0 2 -23 21 -14
22 10 0 12 3 16 6 9 9 -22 -7 -84 -20 -79 -7 2 -11 12 -11 21 1 11 -4 16 -14
14 -19 -4 -35 -55 -19 -62 7 -3 2 -3 -10 -1 -12 3 -24 2 -27 -3 -3 -5 -26 -7
-51 -4 -27 3 -45 1 -45 -5 0 -14 59 -23 107 -16 l39 5 12 -78 c12 -77 12 -79
-10 -96 -22 -16 -22 -17 -4 -37 21 -23 33 -25 55 -12 15 10 24 81 10 81 -12 0
-12 37 1 45 7 4 7 13 0 25 -6 11 -8 31 -4 44 9 37 -6 54 -22 25 l-13 -24 -1
27 c0 31 11 41 35 32 12 -5 15 -16 13 -42 -2 -22 2 -37 10 -40 8 -2 12 8 12
30 0 18 3 43 6 56 4 15 2 22 -7 22 -8 0 -15 10 -16 23 -7 87 -31 121 -63 92
-19 -17 -20 -17 -20 -1 0 9 -4 15 -10 11 -6 -4 -6 -15 0 -31 13 -32 12 -57 0
-26 -6 14 -17 22 -27 20 -11 -2 -18 3 -18 13 0 27 -26 51 -41 38 -15 -12 -34
-4 -34 14 -1 21 -25 45 -53 52 -22 6 -27 4 -27 -11 -1 -18 -1 -18 -11 -1 -13
23 -29 22 -29 -3z m114 -55 c3 -9 0 -15 -9 -15 -8 0 -15 7 -15 15 0 8 4 15 9
15 5 0 11 -7 15 -15z m186 -19 c0 -3 -4 -8 -10 -11 -5 -3 -10 -1 -10 4 0 6 5
11 10 11 6 0 10 -2 10 -4z m-3 -258 c-3 -8 -6 -5 -6 6 -1 11 2 17 5 13 3 -3 4
-12 1 -19z"/>
<path d="M3390 2086 c0 -2 7 -9 15 -16 9 -7 15 -8 15 -2 0 5 -7 12 -15 16 -8
3 -15 4 -15 2z"/>
<path d="M3230 2069 c0 -5 5 -7 10 -4 6 3 10 8 10 11 0 2 -4 4 -10 4 -5 0 -10
-5 -10 -11z"/>
<path d="M3257 2064 c-6 -10 9 -42 16 -34 3 3 1 14 -3 24 -3 11 -9 15 -13 10z"/>
<path d="M2996 1951 c-4 -7 -5 -15 -2 -18 9 -9 19 4 14 18 -4 11 -6 11 -12 0z"/>
<path d="M2915 1890 c3 -5 10 -10 16 -10 5 0 9 5 9 10 0 6 -7 10 -16 10 -8 0
-12 -4 -9 -10z"/>
<path d="M2327 1877 c-3 -8 -1 -20 4 -28 6 -10 9 -7 9 14 0 29 -5 35 -13 14z"/>
<path d="M2480 1871 c0 -11 4 -22 9 -25 5 -3 12 -23 16 -43 4 -21 10 -33 12
-26 2 7 11 9 19 6 9 -3 14 2 14 17 0 11 -4 19 -9 15 -9 -5 -38 35 -32 43 1 1
-5 10 -14 18 -13 14 -15 13 -15 -5z"/>
<path d="M2915 1860 c-3 -6 3 -10 14 -10 11 0 23 -5 26 -10 5 -8 11 -7 21 0
14 12 140 10 160 -2 15 -10 93 -7 99 3 3 4 17 4 31 -1 27 -11 66 2 46 14 -18
11 -390 17 -397 6z"/>
<path d="M2370 1836 c0 -14 5 -26 10 -26 6 0 10 9 10 19 0 11 -4 23 -10 26 -6
4 -10 -5 -10 -19z"/>
<path d="M3715 1850 c-3 -5 -1 -10 4 -10 6 0 11 5 11 10 0 6 -2 10 -4 10 -3 0
-8 -4 -11 -10z"/>
<path d="M2648 1843 c7 -3 16 -2 19 1 4 3 -2 6 -13 5 -11 0 -14 -3 -6 -6z"/>
<path d="M3647 1830 c3 -11 9 -17 14 -14 14 8 10 34 -5 34 -9 0 -12 -7 -9 -20z"/>
<path d="M2478 1828 c-4 -9 -4 -26 -1 -37 3 -13 1 -21 -6 -21 -7 0 -10 -4 -6
-9 3 -5 1 -12 -5 -16 -5 -3 -10 -17 -10 -31 0 -18 5 -24 16 -22 10 2 18 -5 19
-15 2 -9 0 -15 -5 -12 -8 5 -21 -31 -13 -38 10 -10 44 6 39 19 -3 8 4 18 15
24 23 13 16 30 -12 30 -13 0 -19 7 -19 21 0 14 5 19 14 16 10 -4 13 -1 9 9 -3
7 -9 14 -13 14 -5 0 -10 19 -12 43 -2 26 -6 36 -10 25z"/>
<path d="M2400 1804 c0 -8 5 -12 10 -9 6 4 8 11 5 16 -9 14 -15 11 -15 -7z"/>
<path d="M3760 1782 c0 -28 -7 -45 -25 -62 -28 -26 -29 -29 -16 -49 6 -8 14
-10 22 -5 8 5 20 9 27 10 29 5 23 14 -6 10 -28 -3 -30 -1 -21 15 5 11 21 20
37 20 17 1 20 3 10 6 -22 6 -23 12 -3 27 13 9 13 15 3 38 -18 39 -28 35 -28
-10z"/>
<path d="M2585 1780 c-3 -5 -1 -10 4 -10 6 0 11 5 11 10 0 6 -2 10 -4 10 -3 0
-8 -4 -11 -10z"/>
<path d="M2669 1773 c-13 -16 -12 -17 4 -4 16 13 21 21 13 21 -2 0 -10 -8 -17
-17z"/>
<path d="M3735 1750 c3 -5 8 -10 11 -10 2 0 4 5 4 10 0 6 -5 10 -11 10 -5 0
-7 -4 -4 -10z"/>
<path d="M3015 1711 c3 -5 1 -12 -4 -15 -5 -4 -13 -1 -17 5 -4 8 -9 7 -15 -2
-15 -24 -10 -31 20 -24 21 4 29 2 27 -7 -1 -15 5 -18 37 -18 l22 1 -24 19
c-13 11 -18 20 -12 20 6 0 8 7 5 15 -4 8 -15 15 -26 15 -10 0 -17 -4 -13 -9z"/>
<path d="M3100 1700 c-19 -19 -19 -21 -2 -38 16 -17 17 -17 24 0 11 28 78 21
78 -8 0 -21 28 -17 35 6 7 22 50 28 58 8 2 -7 7 -10 11 -7 12 11 -19 54 -42
56 -12 2 -22 -2 -22 -7 0 -6 -9 -10 -20 -10 -11 0 -20 5 -20 11 0 8 -4 8 -14
0 -10 -8 -16 -9 -21 -1 -10 16 -43 12 -65 -10z"/>
<path d="M3328 1713 c7 -3 16 -2 19 1 4 3 -2 6 -13 5 -11 0 -14 -3 -6 -6z"/>
<path d="M3360 1699 c0 -11 4 -18 10 -14 5 3 7 12 3 20 -7 21 -13 19 -13 -6z"/>
<path d="M2731 1701 c-10 -7 -11 -13 -1 -31 6 -12 14 -19 17 -16 3 3 1 12 -6
20 -9 11 -9 15 1 19 7 2 11 7 8 10 -3 3 -12 2 -19 -2z"/>
<path d="M3332 1682 c-7 -5 -10 -16 -6 -25 9 -25 24 -20 24 8 0 28 0 28 -18
17z"/>
<path d="M3142 1649 c2 -6 8 -10 13 -10 5 0 11 4 13 10 2 6 -4 11 -13 11 -9 0
-15 -5 -13 -11z"/>
<path d="M3421 1643 c7 -10 15 -20 16 -22 2 -2 3 3 3 11 0 9 -7 19 -16 22 -15
6 -15 4 -3 -11z"/>
<path d="M3694 1639 c-4 -7 -8 -30 -9 -53 -2 -22 -8 -42 -14 -44 -14 -5 -15
-22 -1 -22 5 0 12 11 16 25 6 26 29 34 37 13 2 -7 8 -10 12 -5 5 4 3 13 -3 19
-7 7 -12 27 -12 45 0 33 -12 43 -26 22z"/>
<path d="M2531 1614 c0 -11 3 -14 6 -6 3 7 2 16 -1 19 -3 4 -6 -2 -5 -13z"/>
<path d="M3036 1615 c4 -8 13 -15 21 -15 13 0 13 3 3 15 -7 8 -16 15 -21 15
-5 0 -6 -7 -3 -15z"/>
<path d="M3276 1617 c3 -10 9 -15 12 -12 3 3 0 11 -7 18 -10 9 -11 8 -5 -6z"/>
<path d="M2631 1598 c-5 -13 -6 -27 -3 -33 3 -5 8 -2 10 5 3 8 11 23 20 33 14
15 13 17 -2 17 -9 0 -20 -10 -25 -22z"/>
<path d="M2685 1610 c3 -5 13 -10 21 -10 8 0 12 5 9 10 -3 6 -13 10 -21 10 -8
0 -12 -4 -9 -10z"/>
<path d="M3145 1610 c-4 -6 -11 -8 -16 -5 -5 4 -9 2 -9 -4 0 -18 20 -22 35 -7
9 8 11 17 6 21 -5 3 -12 1 -16 -5z"/>
<path d="M2423 1603 c-15 -5 -18 -33 -4 -33 5 0 11 9 14 20 3 11 4 20 4 19 -1
0 -8 -3 -14 -6z"/>
<path d="M2983 1576 c2 -6 14 -11 27 -11 30 0 39 -25 11 -32 -28 -7 -27 -20 2
-18 25 2 36 37 18 59 -14 16 -63 18 -58 2z"/>
<path d="M3640 1571 c0 -12 5 -21 10 -21 6 0 10 6 10 14 0 8 -4 18 -10 21 -5
3 -10 -3 -10 -14z"/>
<path d="M2823 1562 c-36 -17 -50 -41 -31 -54 8 -5 19 -1 29 12 9 10 19 16 23
13 8 -8 36 29 30 39 -6 10 -12 9 -51 -10z"/>
<path d="M2916 1565 c-13 -10 -16 -19 -10 -25 5 -5 13 0 21 16 6 13 10 24 10
24 -1 0 -11 -7 -21 -15z"/>
<path d="M3543 1567 c-29 -13 -29 -23 -1 -30 25 -7 38 -1 38 18 0 20 -12 24
-37 12z"/>
<path d="M2725 1560 c-3 -5 -1 -10 4 -10 6 0 11 5 11 10 0 6 -2 10 -4 10 -3 0
-8 -4 -11 -10z"/>
<path d="M3120 1551 c0 -5 -9 -7 -20 -4 -13 3 -20 0 -20 -8 0 -8 -3 -25 -7
-38 -4 -18 -3 -22 8 -19 8 3 13 13 11 22 -2 13 1 16 15 12 14 -5 19 0 21 19 1
14 0 25 -3 25 -3 0 -5 -4 -5 -9z"/>
<path d="M2633 1520 c-3 -11 -9 -20 -13 -20 -4 0 -10 -9 -13 -19 -3 -14 -1
-18 9 -14 8 3 14 11 14 19 0 8 6 11 18 7 13 -5 14 -3 5 7 -6 7 -9 19 -6 26 3
8 2 14 -2 14 -4 0 -9 -9 -12 -20z"/>
<path d="M2383 1523 c-15 -5 -17 -23 -4 -23 5 0 11 7 15 15 3 8 4 15 3 14 -1
0 -8 -3 -14 -6z"/>
<path d="M3171 1516 c8 -6 20 -22 27 -36 9 -20 11 -21 10 -5 -2 11 1 26 5 33
5 6 5 12 0 13 -4 0 -19 2 -32 3 -19 2 -21 1 -10 -8z"/>
<path d="M3694 1509 c0 -22 21 -25 29 -5 3 8 -2 16 -12 19 -11 3 -17 -2 -17
-14z"/>
<path d="M2582 1499 c-7 -12 -11 -24 -8 -27 6 -6 35 27 36 41 0 14 -15 7 -28
-14z"/>
<path d="M2830 1513 c0 -5 5 -15 10 -23 8 -12 10 -11 10 8 0 12 -4 22 -10 22
-5 0 -10 -3 -10 -7z"/>
<path d="M2716 1484 c-9 -22 -8 -24 9 -18 8 4 15 12 15 20 0 19 -16 18 -24 -2z"/>
<path d="M3011 1484 c0 -11 3 -14 6 -6 3 7 2 16 -1 19 -3 4 -6 -2 -5 -13z"/>
<path d="M3230 1494 c0 -4 11 -17 25 -30 19 -17 25 -19 25 -8 0 9 -6 22 -14
30 -15 14 -36 19 -36 8z"/>
<path d="M3600 1490 c0 -5 7 -7 15 -4 8 4 15 8 15 10 0 2 -7 4 -15 4 -8 0 -15
-4 -15 -10z"/>
<path d="M2122 1458 c-17 -17 -29 -35 -26 -40 3 -4 -6 -12 -20 -18 -31 -11
-31 -13 -9 -31 11 -10 14 -10 9 -1 -5 8 1 12 22 12 34 0 48 -23 27 -44 -21
-21 -20 -23 26 -24 40 -2 41 -1 37 28 -3 17 -1 30 4 30 4 0 8 5 8 11 0 8 -5 7
-15 -1 -18 -15 -26 -10 -26 16 0 36 6 59 19 67 15 10 7 27 -12 27 -8 0 -28
-14 -44 -32z m35 -130 c-3 -8 -6 -5 -6 6 -1 11 2 17 5 13 3 -3 4 -12 1 -19z"/>
<path d="M2902 1478 c-7 -7 -12 -21 -13 -32 0 -12 -3 -15 -6 -8 -8 21 -23 13
-23 -12 0 -19 4 -22 24 -19 22 4 40 32 46 70 2 13 -15 14 -28 1z"/>
<path d="M3120 1469 c0 -5 5 -7 10 -4 6 3 10 8 10 11 0 2 -4 4 -10 4 -5 0 -10
-5 -10 -11z"/>
<path d="M2423 1443 c-2 -39 7 -46 26 -22 21 27 19 39 -8 39 -10 0 -18 -8 -18
-17z"/>
<path d="M3356 1428 c-3 -13 -1 -24 4 -26 6 -2 10 -12 10 -23 0 -24 30 -25 31
-1 0 9 2 27 3 40 2 12 -1 22 -6 22 -4 0 -8 -7 -8 -15 0 -8 -5 -15 -11 -15 -6
0 -9 9 -6 20 3 11 2 20 -3 20 -4 0 -10 -10 -14 -22z"/>
<path d="M3503 1443 c-10 -4 -8 -57 2 -71 6 -7 34 11 29 19 -3 5 -10 7 -15 4
-5 -4 -9 3 -9 14 0 11 8 21 18 23 14 3 14 5 2 9 -8 3 -20 4 -27 2z"/>
<path d="M3690 1440 c-9 -6 -10 -10 -3 -10 6 0 15 5 18 10 8 12 4 12 -15 0z"/>
<path d="M3710 1415 c0 -9 5 -15 11 -13 6 2 11 8 11 13 0 5 -5 11 -11 13 -6 2
-11 -4 -11 -13z"/>
<path d="M2938 1409 c-18 -10 -25 -39 -9 -39 12 0 33 28 29 39 -2 6 -9 6 -20
0z"/>
<path d="M3471 1394 c0 -11 3 -14 6 -6 3 7 2 16 -1 19 -3 4 -6 -2 -5 -13z"/>
<path d="M2388 1375 c-3 -13 -2 -22 2 -20 4 2 13 -14 20 -35 7 -22 19 -40 27
-40 7 0 13 -6 13 -13 0 -17 48 -67 64 -67 8 0 13 -8 12 -17 -1 -12 6 -17 17
-16 15 1 17 -4 12 -25 -5 -21 -4 -24 8 -14 8 7 27 10 45 6 26 -5 31 -10 26
-28 -5 -22 17 -36 79 -50 15 -4 27 -11 27 -17 0 -6 4 -7 10 -4 5 3 20 -1 32
-9 12 -9 30 -16 40 -16 11 0 15 -5 12 -15 -4 -11 1 -15 17 -16 13 -1 35 -3 49
-6 14 -2 35 -4 48 -3 13 0 21 -4 18 -9 -6 -9 26 -21 59 -21 15 0 17 2 6 9 -9
6 -10 11 -2 15 6 4 11 4 11 -1 0 -4 7 3 16 16 14 19 14 25 3 32 -18 12 -66 3
-86 -16 -12 -13 -18 -13 -30 -4 -8 7 -12 21 -10 31 5 17 -5 22 -40 21 -7 -1
-13 4 -13 11 0 6 -5 4 -10 -4 -8 -12 -13 -11 -37 8 -15 12 -38 27 -50 32 -13
5 -23 14 -23 18 0 5 -18 8 -39 7 -39 -2 -59 14 -45 36 3 5 0 9 -6 9 -6 0 -9 4
-6 8 2 4 -4 14 -16 21 -11 7 -17 8 -13 2 3 -6 0 -11 -8 -11 -8 0 -17 7 -21 15
-3 8 -13 15 -23 15 -28 1 -53 25 -55 54 -1 14 -8 26 -16 26 -7 0 -10 5 -7 10
3 6 17 7 31 4 27 -7 31 1 10 22 -19 18 -41 18 -60 -2 -15 -14 -16 -13 -16 10
0 17 -5 26 -16 26 -14 0 -15 2 -3 16 12 15 11 16 -8 10 -12 -4 -24 -2 -28 4
-11 17 -22 11 -27 -15z"/>
<path d="M2828 1375 c-3 -16 -2 -38 2 -49 7 -19 8 -19 15 7 4 16 3 38 -2 50
-9 21 -10 20 -15 -8z"/>
<path d="M2577 1370 c3 -11 9 -20 13 -20 4 0 10 9 13 20 4 15 0 20 -13 20 -13
0 -17 -5 -13 -20z"/>
<path d="M2730 1380 c-8 -5 -11 -12 -7 -16 4 -4 15 0 24 9 18 18 8 23 -17 7z"/>
<path d="M2690 1370 c0 -5 5 -10 11 -10 5 0 7 5 4 10 -3 6 -8 10 -11 10 -2 0
-4 -4 -4 -10z"/>
<path d="M3754 1340 c2 -22 -3 -30 -18 -33 -20 -4 -20 -5 2 -12 13 -4 21 -13
18 -20 -2 -6 0 -18 5 -26 6 -10 9 -1 8 26 -1 22 2 50 6 61 4 14 2 23 -8 27
-11 4 -14 -1 -13 -23z"/>
<path d="M2016 1323 c-14 -20 -26 -43 -26 -49 0 -7 -7 -14 -15 -18 -16 -6 -21
-66 -6 -66 5 0 17 -7 25 -16 21 -20 35 -10 34 25 -1 24 -4 27 -27 24 -24 -4
-25 -3 -6 8 34 21 47 39 41 55 -3 8 0 17 7 20 13 5 16 38 5 50 -4 3 -18 -12
-32 -33z"/>
<path d="M3333 1343 c-3 -10 -13 -26 -21 -35 -13 -16 -13 -18 0 -18 16 0 48
40 48 60 0 17 -20 11 -27 -7z"/>
<path d="M2610 1310 c-20 -26 -30 -46 -26 -57 5 -13 9 -14 19 -4 9 9 9 14 -3
22 -11 8 -7 9 15 5 23 -5 26 -4 15 4 -13 9 -13 12 1 23 18 14 32 47 20 47 -5
0 -24 -18 -41 -40z"/>
<path d="M2965 1338 c-28 -15 -28 -14 -20 -37 9 -29 23 -26 36 6 13 35 8 44
-16 31z"/>
<path d="M3217 1344 c-8 -8 1 -24 14 -24 5 0 9 7 9 15 0 15 -12 20 -23 9z"/>
<path d="M3685 1340 c-3 -5 3 -10 14 -10 12 0 21 5 21 10 0 6 -6 10 -14 10 -8
0 -18 -4 -21 -10z"/>
<path d="M2688 1313 c6 -2 18 -2 25 0 6 3 1 5 -13 5 -14 0 -19 -2 -12 -5z"/>
<path d="M2900 1305 c-7 -9 -10 -18 -7 -21 10 -11 37 5 37 21 0 19 -14 19 -30
0z"/>
<path d="M3037 1300 c-7 -29 -9 -27 26 -35 17 -5 27 -3 27 4 0 6 -7 11 -15 11
-9 0 -19 10 -24 22 l-8 22 -6 -24z"/>
<path d="M3272 1300 c0 -14 2 -19 5 -12 2 6 2 18 0 25 -3 6 -5 1 -5 -13z"/>
<path d="M2725 1300 c-3 -5 -15 -10 -26 -10 -14 0 -19 -5 -17 -17 3 -14 13
-18 41 -17 39 1 61 13 40 21 -7 3 -13 11 -13 19 0 16 -16 19 -25 4z"/>
<path d="M3680 1299 c0 -5 5 -7 10 -4 6 3 10 8 10 11 0 2 -4 4 -10 4 -5 0 -10
-5 -10 -11z"/>
<path d="M2190 1291 c0 -9 30 -24 36 -18 2 1 -6 8 -16 15 -11 7 -20 8 -20 3z"/>
<path d="M3610 1287 c0 -1 -4 -17 -9 -35 -5 -17 -6 -32 -1 -32 4 0 10 8 13 18
2 9 8 25 12 35 4 10 3 17 -4 17 -6 0 -11 -1 -11 -3z"/>
<path d="M2160 1269 c0 -5 5 -7 10 -4 6 3 10 8 10 11 0 2 -4 4 -10 4 -5 0 -10
-5 -10 -11z"/>
<path d="M3530 1256 c-5 -15 -10 -32 -10 -37 0 -5 -4 -9 -8 -9 -4 0 -13 -15
-20 -34 -14 -38 -52 -78 -52 -55 -1 9 -8 5 -21 -10 -11 -13 -23 -21 -27 -17
-4 4 0 13 8 19 19 15 21 107 3 107 -10 0 -18 -25 -26 -90 -1 -8 -6 -14 -10
-12 -4 1 -18 2 -31 2 -15 0 -27 7 -30 18 -3 9 -3 -7 0 -35 5 -55 -10 -74 -22
-28 -3 14 -12 25 -20 25 -8 0 -17 1 -21 1 -4 1 -15 -11 -24 -27 -10 -19 -25
-30 -42 -32 -15 -2 -25 -8 -22 -13 4 -5 -1 -9 -9 -9 -19 0 -33 23 -18 28 15 5
16 32 2 32 -5 0 -10 -6 -10 -14 0 -7 -10 -20 -22 -29 -13 -8 -20 -18 -16 -22
4 -4 15 -2 24 6 16 13 17 11 12 -13 -6 -31 8 -60 20 -42 10 15 62 24 88 14 23
-9 84 20 84 40 0 5 9 10 20 10 11 0 23 7 26 15 5 11 10 13 19 5 9 -7 20 -4 38
10 14 11 29 20 35 20 5 0 21 9 34 20 14 10 28 16 32 13 3 -3 6 -1 6 5 0 6 11
23 25 38 26 28 32 58 15 69 -10 6 -14 -7 -11 -32 1 -7 -3 -13 -9 -13 -14 0
-12 20 5 54 10 20 12 33 6 39 -7 7 -14 1 -21 -17z m-260 -175 c0 -5 -7 -11
-15 -15 -9 -3 -15 0 -15 9 0 8 7 15 15 15 8 0 15 -4 15 -9z m-12 -56 c-3 -3
-9 2 -12 12 -6 14 -5 15 5 6 7 -7 10 -15 7 -18z"/>
<path d="M3281 1262 c0 -8 -11 -22 -23 -31 -23 -19 -19 -51 6 -51 18 0 30 37
23 71 -2 13 -5 18 -6 11z"/>
<path d="M2880 1245 c0 -8 2 -15 4 -15 2 0 6 7 10 15 3 8 1 15 -4 15 -6 0 -10
-7 -10 -15z"/>
<path d="M2740 1234 l-25 -14 30 3 c17 1 30 -2 30 -8 0 -5 -4 -9 -9 -7 -4 1
-17 0 -28 -4 -19 -6 -19 -6 2 -21 11 -8 27 -12 35 -9 8 3 14 0 12 -7 -4 -24
40 -18 57 7 9 15 12 26 7 26 -5 0 -13 -4 -16 -10 -8 -13 -35 -13 -35 1 0 6 9
13 20 16 37 10 16 31 -24 24 -4 -1 -13 3 -20 8 -7 6 -20 4 -36 -5z"/>
<path d="M3676 1235 c-8 -23 -8 -35 3 -35 13 0 23 32 13 42 -6 6 -12 3 -16 -7z"/>
<path d="M2155 1192 c-4 -20 -11 -42 -17 -49 -7 -9 -5 -17 5 -28 20 -19 24
-12 33 52 7 60 -10 82 -21 25z"/>
<path d="M3190 1215 c0 -8 4 -15 10 -15 5 0 7 7 4 15 -4 8 -8 15 -10 15 -2 0
-4 -7 -4 -15z"/>
<path d="M3352 1210 c0 -14 2 -19 5 -12 2 6 2 18 0 25 -3 6 -5 1 -5 -13z"/>
<path d="M3105 1210 c-3 -5 -1 -10 4 -10 6 0 11 5 11 10 0 6 -2 10 -4 10 -3 0
-8 -4 -11 -10z"/>
<path d="M3770 1210 c0 -5 -8 -6 -17 -3 -15 6 -16 5 -3 -9 8 -9 17 -12 18 -7
2 5 10 9 18 9 9 0 12 5 9 10 -8 13 -25 13 -25 0z"/>
<path d="M3906 1212 c-3 -5 6 -21 20 -37 28 -33 30 -30 8 13 -16 34 -20 37
-28 24z"/>
<path d="M2900 1184 c0 -16 5 -24 13 -22 18 7 20 35 2 41 -11 5 -15 0 -15 -19z"/>
<path d="M3200 1180 c0 -5 0 -13 -1 -17 0 -4 9 -10 20 -15 12 -4 21 -3 21 2 0
6 -10 10 -21 10 -18 0 -19 2 -9 15 9 10 9 15 1 15 -6 0 -11 -4 -11 -10z"/>
<path d="M1875 1170 c-3 -5 -2 -10 4 -10 5 0 13 5 16 10 3 6 2 10 -4 10 -5 0
-13 -4 -16 -10z"/>
<path d="M3616 1148 c-9 -17 -16 -38 -16 -47 0 -9 -9 -27 -20 -41 -11 -14 -20
-31 -20 -37 0 -7 -4 -13 -10 -13 -5 0 -10 -11 -10 -25 0 -14 -4 -25 -9 -25 -8
0 -91 -132 -91 -145 0 -13 -82 -75 -100 -75 -5 0 -10 -6 -10 -14 0 -8 -9 -18
-20 -21 -11 -3 -20 -10 -20 -14 0 -4 -18 -27 -40 -51 -22 -23 -43 -52 -46 -64
-7 -23 -73 -85 -90 -86 -6 0 -17 -12 -24 -27 -8 -19 -14 -23 -18 -14 -2 7 2
17 9 22 11 7 11 9 -3 9 -43 0 -31 -41 17 -56 31 -10 34 -9 37 10 2 15 10 21
26 20 14 0 22 5 22 16 0 9 10 22 23 29 12 6 30 31 40 54 17 37 20 40 27 22 8
-18 9 -17 9 8 1 26 14 36 25 18 4 -5 0 -12 -6 -14 -8 -3 -5 -6 6 -6 15 -1 17
4 12 30 -7 38 8 69 34 69 11 0 20 7 20 15 0 26 58 74 82 67 18 -4 20 -2 14 21
-6 26 7 46 19 27 3 -5 14 -10 25 -10 13 0 17 5 13 20 -3 12 0 20 7 20 6 0 10
10 8 23 -1 13 8 36 20 52 13 16 21 34 18 41 -5 14 31 26 40 13 7 -12 34 -11
34 1 0 6 -8 14 -17 17 -46 17 -56 53 -20 68 15 7 22 19 24 40 0 17 2 38 2 48
1 9 6 17 12 17 6 0 9 -7 5 -15 -3 -8 -2 -15 3 -15 16 0 19 39 4 44 -25 10 -31
7 -47 -26z"/>
<path d="M3121 1154 c0 -11 3 -14 6 -6 3 7 2 16 -1 19 -3 4 -6 -2 -5 -13z"/>
<path d="M3778 1164 c-5 -4 -8 -21 -8 -38 0 -21 3 -27 11 -19 6 6 9 23 7 38
-2 15 -6 23 -10 19z"/>
<path d="M1894 1135 c-4 -8 -10 -12 -15 -9 -5 3 -8 0 -7 -6 2 -7 -13 -19 -32
-26 -31 -13 -32 -14 -6 -8 25 4 28 3 17 -9 -16 -21 6 -35 24 -16 21 21 47 89
35 89 -6 0 -13 -7 -16 -15z"/>
<path d="M2986 1138 c-9 -5 -21 -6 -26 -3 -9 6 -13 -6 -7 -22 1 -4 20 -7 42
-8 32 0 41 4 41 17 0 20 -27 29 -50 16z"/>
<path d="M1810 1130 c-8 -5 -25 -10 -36 -10 -18 0 -34 -17 -34 -36 0 -7 35 10
48 23 8 7 17 11 20 9 4 -2 13 2 20 10 15 16 4 18 -18 4z"/>
<path d="M2797 1126 c-3 -8 -2 -18 3 -21 13 -8 20 9 11 24 -6 10 -10 9 -14 -3z"/>
<path d="M3953 1127 c0 -7 -4 -20 -8 -29 -4 -11 -3 -18 5 -18 6 0 14 9 17 19
3 13 11 18 21 14 22 -8 13 1 -14 15 -15 8 -21 8 -21 -1z"/>
<path d="M4176 1129 c5 -8 -1 -10 -19 -7 -22 4 -24 3 -14 -13 7 -11 17 -15 30
-10 10 4 18 10 18 14 -1 4 -1 12 -1 17 0 6 -5 10 -11 10 -5 0 -7 -5 -3 -11z"/>
<path d="M2888 1123 c6 -2 18 -2 25 0 6 3 1 5 -13 5 -14 0 -19 -2 -12 -5z"/>
<path d="M3110 1120 c0 -5 5 -10 11 -10 5 0 7 5 4 10 -3 6 -8 10 -11 10 -2 0
-4 -4 -4 -10z"/>
<path d="M1983 1113 c4 -3 -1 -12 -11 -19 -16 -12 -15 -13 5 -14 12 0 23 -4
25 -9 6 -16 43 -17 43 -1 0 10 -8 14 -24 12 -19 -2 -22 2 -18 18 3 14 0 20
-11 20 -8 0 -12 -3 -9 -7z"/>
<path d="M4275 1110 c-3 -5 -1 -10 4 -10 6 0 11 5 11 10 0 6 -2 10 -4 10 -3 0
-8 -4 -11 -10z"/>
<path d="M3060 1085 c0 -17 9 -19 28 -6 11 7 10 10 -3 15 -23 9 -25 8 -25 -9z"/>
<path d="M4240 1074 c0 -8 5 -12 10 -9 6 4 8 11 5 16 -9 14 -15 11 -15 -7z"/>
<path d="M2135 1070 c-3 -5 -2 -10 4 -10 5 0 13 5 16 10 3 6 2 10 -4 10 -5 0
-13 -4 -16 -10z"/>
<path d="M3780 1064 c0 -8 5 -12 10 -9 6 3 10 10 10 16 0 5 -4 9 -10 9 -5 0
-10 -7 -10 -16z"/>
<path d="M4370 1067 c0 -26 95 -71 120 -57 27 14 25 24 -2 17 -13 -4 -32 2
-48 13 -15 11 -30 16 -34 12 -4 -4 -14 2 -22 12 -12 17 -14 17 -14 3z"/>
<path d="M1710 1064 c0 -5 -9 -15 -21 -22 -12 -8 -18 -9 -15 -4 4 6 -3 8 -16
4 -12 -3 -17 -7 -10 -10 6 -2 12 -8 12 -13 0 -4 -6 -6 -14 -3 -8 3 -27 -1 -43
-10 -16 -9 -21 -15 -12 -16 8 0 21 6 27 12 10 10 15 10 22 -2 7 -12 12 -12 22
-2 6 6 20 12 29 12 16 0 36 46 24 58 -3 3 -5 1 -5 -4z"/>
<path d="M1731 1054 c0 -11 3 -14 6 -6 3 7 2 16 -1 19 -3 4 -6 -2 -5 -13z"/>
<path d="M1756 1052 c-2 -4 4 -9 15 -9 10 -1 19 2 19 8 0 11 -27 12 -34 1z"/>
<path d="M2210 1052 c0 -4 9 -13 20 -20 23 -14 26 -7 6 14 -16 15 -26 18 -26
6z"/>
<path d="M3408 1033 c7 -3 16 -2 19 1 4 3 -2 6 -13 5 -11 0 -14 -3 -6 -6z"/>
<path d="M1997 1006 c-6 -16 2 -28 14 -20 12 7 11 34 0 34 -5 0 -11 -6 -14
-14z"/>
<path d="M4196 1010 c-17 -6 -18 -7 -3 -13 9 -3 19 -2 23 4 9 15 2 18 -20 9z"/>
<path d="M1795 999 c-4 -6 -26 -9 -49 -8 -22 1 -54 -4 -70 -10 -23 -9 -31 -9
-37 1 -7 10 -11 10 -21 0 -14 -14 -48 -16 -48 -2 0 5 -7 7 -15 4 -9 -4 -14
-14 -13 -23 2 -12 -4 -15 -30 -13 -23 3 -41 -4 -63 -22 -16 -14 -48 -30 -71
-36 -22 -6 -52 -16 -67 -21 -23 -9 -24 -11 -8 -20 9 -6 15 -14 12 -20 -4 -5
-1 -9 4 -9 6 0 11 5 11 10 0 14 27 12 33 -2 3 -7 6 -3 6 8 1 29 22 44 67 48
45 4 89 20 99 35 3 6 17 11 31 11 13 0 24 4 24 9 0 10 33 22 68 25 12 1 22 -2
22 -6 0 -4 -6 -8 -14 -8 -8 0 -18 -5 -21 -11 -14 -21 3 -19 39 6 29 20 41 23
54 15 12 -8 13 -10 2 -7 -26 7 -50 -12 -50 -41 0 -19 -3 -23 -9 -13 -12 18
-45 6 -37 -14 3 -8 1 -17 -5 -21 -5 -3 -7 -15 -4 -27 2 -12 2 -16 -1 -9 -10
22 -26 13 -20 -12 3 -14 1 -28 -4 -31 -6 -4 -10 -3 -9 2 4 25 -2 53 -11 48 -6
-4 -7 -12 -1 -23 12 -21 -15 -62 -41 -62 -13 0 -18 -5 -15 -14 3 -7 0 -19 -6
-25 -6 -6 -8 -13 -6 -16 3 -2 34 19 69 48 73 59 193 178 186 184 -2 2 11 20
30 38 19 19 34 37 34 40 0 10 -39 5 -45 -6z m-58 -75 c-9 -9 -28 6 -21 18 4 6
10 6 17 -1 6 -6 8 -13 4 -17z m-240 -1 c-9 -9 -19 -14 -23 -11 -10 10 6 28 24
28 15 0 15 -1 -1 -17z"/>
<path d="M2235 967 c-5 -17 -3 -33 4 -40 6 -6 11 -18 11 -26 0 -14 -1 -14 -10
-1 -8 12 -10 9 -10 -12 0 -31 11 -36 29 -14 13 16 10 56 -6 96 l-11 25 -7 -28z"/>
<path d="M2380 980 c0 -5 5 -10 10 -10 6 0 10 5 10 10 0 6 -4 10 -10 10 -5 0
-10 -4 -10 -10z"/>
<path d="M3775 968 c-5 -15 -2 -45 7 -53 3 -3 8 8 10 25 5 31 -8 52 -17 28z"/>
<path d="M4510 970 c0 -5 7 -10 16 -10 8 0 12 5 9 10 -3 6 -10 10 -16 10 -5 0
-9 -4 -9 -10z"/>
<path d="M3080 960 c-8 -5 -10 -10 -5 -10 6 0 17 5 25 10 8 5 11 10 5 10 -5 0
-17 -5 -25 -10z"/>
<path d="M3160 966 c0 -2 9 -6 20 -9 11 -3 18 -1 14 4 -5 9 -34 13 -34 5z"/>
<path d="M4198 952 c-25 -5 -22 -72 3 -72 4 0 6 6 3 14 -3 8 0 24 6 36 13 25
12 28 -12 22z"/>
<path d="M1527 903 c-4 -3 -7 -13 -7 -21 0 -12 3 -12 15 -2 8 7 15 16 15 21 0
11 -14 12 -23 2z"/>
<path d="M1990 890 c-8 -5 -27 -6 -42 -3 -17 3 -28 1 -28 -6 0 -6 -13 -11 -29
-11 -17 0 -33 -4 -36 -10 -3 -5 -2 -10 3 -10 9 0 7 -65 -3 -109 -6 -21 -4 -23
22 -16 38 9 40 13 17 30 -10 9 -14 15 -9 14 25 -3 37 2 32 16 -7 17 40 58 57
48 6 -4 5 1 -3 10 -12 15 -12 17 4 11 10 -4 21 -1 26 7 7 9 8 5 3 -13 -5 -24
-3 -27 15 -23 13 2 21 -1 21 -11 0 -8 -6 -14 -13 -14 -7 0 -13 -9 -13 -20 0
-11 6 -20 13 -20 7 0 13 8 13 19 0 26 27 48 42 33 9 -9 9 -12 0 -12 -27 0 0
-43 44 -69 11 -6 13 -11 7 -11 -23 0 -14 -18 11 -22 35 -7 41 18 11 38 -14 9
-25 21 -25 26 0 5 -9 22 -19 37 -11 15 -23 39 -26 54 -7 25 -16 32 -38 28 -4
-1 -16 3 -25 8 -11 6 -24 6 -32 1z"/>
<path d="M2435 890 c-3 -5 -1 -10 4 -10 6 0 11 5 11 10 0 6 -2 10 -4 10 -3 0
-8 -4 -11 -10z"/>
<path d="M2301 864 c-27 -14 -36 -53 -15 -61 7 -3 18 -21 25 -40 9 -29 9 -37
-2 -44 -9 -5 0 -6 21 -3 36 6 36 6 37 -30 1 -44 17 -66 43 -59 23 6 27 -12 5
-21 -26 -10 -16 -23 15 -18 17 2 30 10 30 18 0 14 -64 104 -82 115 -6 4 -7 12
-4 18 4 6 0 14 -8 17 -10 4 -16 18 -16 38 0 18 -4 36 -9 42 -5 5 -11 16 -13
24 -2 13 -7 14 -27 4z m103 -210 c3 -8 2 -12 -4 -9 -6 3 -10 10 -10 16 0 14 7
11 14 -7z"/>
<path d="M3591 865 c9 -9 33 -18 55 -21 35 -4 37 -3 14 7 -14 6 -38 15 -55 20
-26 8 -27 7 -14 -6z"/>
<path d="M4480 869 c0 -5 5 -7 10 -4 6 3 10 8 10 11 0 2 -4 4 -10 4 -5 0 -10
-5 -10 -11z"/>
<path d="M1250 853 c-8 -3 -21 -13 -28 -22 -11 -14 -14 -14 -23 -1 -9 13 -10
13 -6 -1 7 -21 -35 -43 -51 -27 -6 6 -16 7 -22 3 -9 -6 -9 -10 1 -16 11 -7 10
-9 -3 -9 -10 0 -18 -5 -18 -11 0 -7 -9 -9 -24 -5 -16 4 -26 1 -29 -8 -3 -7
-23 -17 -44 -21 -45 -8 -156 -73 -148 -86 4 -5 -1 -6 -9 -3 -12 4 -16 0 -16
-15 0 -12 -6 -21 -12 -20 -23 4 -48 -13 -48 -32 0 -11 -5 -16 -13 -14 -18 8
-41 -33 -27 -50 8 -9 7 -14 -4 -18 -8 -3 -17 -1 -20 6 -2 7 -5 1 -5 -13 -1
-15 -15 -38 -35 -56 -31 -29 -32 -32 -15 -42 24 -15 32 -15 26 1 -3 7 1 21 8
31 13 17 14 16 25 -4 8 -15 8 -20 1 -16 -6 4 -11 3 -11 -3 0 -20 22 -22 42 -4
21 18 21 18 10 -3 -16 -31 -39 -47 -47 -34 -12 19 -24 1 -20 -30 2 -17 0 -30
-5 -30 -6 0 -10 6 -10 14 0 8 -7 16 -15 20 -20 7 -16 -35 5 -51 11 -9 12 -14
3 -24 -6 -6 -9 -17 -7 -24 3 -7 1 -16 -5 -20 -19 -11 -12 -27 9 -20 12 4 27 1
35 -5 11 -9 19 -6 36 11 l22 22 -28 -7 c-24 -6 -27 -4 -23 12 4 15 1 18 -14
14 -18 -4 -19 -3 -6 19 7 13 16 26 19 29 3 3 9 12 12 20 3 10 6 7 6 -8 1 -13
5 -21 10 -18 5 3 11 -1 15 -9 9 -25 26 -17 26 13 0 15 5 33 12 40 7 7 8 12 2
12 -5 0 -15 -5 -22 -12 -9 -9 -12 -8 -12 4 0 8 7 21 15 28 16 13 15 34 -3 67
-17 30 -15 38 5 22 13 -11 17 -11 20 -1 3 6 9 9 15 6 7 -5 9 3 5 22 -4 20 0
33 14 45 11 9 19 21 18 25 -4 23 2 45 11 39 6 -3 10 -1 10 4 0 6 7 19 15 29 9
9 26 29 38 43 25 29 54 43 59 27 2 -6 21 1 43 16 24 17 45 24 58 20 14 -4 17
-3 12 7 -6 9 -2 11 13 7 12 -4 22 -3 22 2 0 4 27 19 60 34 33 15 60 31 60 36
0 5 7 7 15 4 8 -4 15 -2 15 4 0 6 3 17 6 26 6 16 0 18 -26 9z m-510 -417 c0
-3 -4 -8 -10 -11 -5 -3 -10 -1 -10 4 0 6 5 11 10 11 6 0 10 -2 10 -4z"/>
<path d="M4194 846 c-8 -21 3 -49 16 -41 5 3 10 15 10 25 0 25 -18 36 -26 16z"/>
<path d="M3788 828 c-7 -49 4 -98 21 -98 14 0 14 -2 1 -10 -8 -5 -11 -12 -7
-16 8 -8 66 46 67 62 0 6 10 16 23 22 17 8 18 11 5 11 -10 1 -18 6 -18 12 0 7
9 9 23 5 12 -3 28 -6 35 -6 6 0 12 -4 12 -10 0 -5 -6 -7 -13 -4 -8 3 -19 -2
-26 -10 -17 -20 -5 -39 16 -27 9 4 24 6 34 4 13 -4 19 0 19 11 0 10 -5 14 -10
11 -6 -4 -9 6 -8 27 3 30 1 33 -27 34 -16 1 -34 -1 -40 -5 -16 -9 -65 -9 -71
0 -10 17 -33 9 -36 -13z m72 -58 c0 -5 -2 -10 -4 -10 -3 0 -8 5 -11 10 -3 6
-1 10 4 10 6 0 11 -4 11 -10z"/>
<path d="M3989 850 c-8 -27 -4 -50 6 -46 8 3 11 -2 8 -15 -7 -25 18 -25 42 1
17 19 17 20 -11 30 -16 6 -32 17 -36 23 -4 7 -8 10 -9 7z"/>
<path d="M1548 823 c-24 -28 -30 -53 -13 -53 8 0 16 7 16 15 2 24 4 29 12 43
12 18 2 15 -15 -5z"/>
<path d="M1802 817 c-12 -13 -22 -26 -22 -30 0 -15 -98 -104 -127 -116 -18 -7
-33 -18 -33 -23 0 -5 -10 -6 -22 -3 l-23 7 23 -17 c12 -9 30 -15 40 -14 33 3
42 -1 42 -21 0 -11 5 -20 11 -20 7 0 9 9 6 21 -3 13 0 22 10 26 12 5 12 7 2
14 -8 4 -10 11 -6 15 3 4 13 2 20 -5 18 -15 44 13 53 57 4 17 13 37 20 43 8 6
14 20 14 30 0 11 4 19 10 19 5 0 14 9 20 20 15 29 -10 27 -38 -3z"/>
<path d="M5125 800 c-7 -11 11 -40 25 -40 4 0 5 11 2 25 -5 26 -16 32 -27 15z"/>
<path d="M4068 793 c-10 -2 -18 -13 -18 -24 0 -10 -7 -19 -15 -19 -8 0 -15 -4
-15 -10 0 -5 6 -10 14 -10 7 0 19 -7 26 -15 7 -8 16 -13 20 -10 5 3 6 -3 3
-14 -6 -24 23 -81 42 -81 8 0 15 -6 15 -14 0 -8 6 -17 13 -19 9 -4 9 -8 0 -14
-17 -12 -1 -77 20 -81 19 -4 21 9 8 53 -4 17 -5 39 -1 50 6 18 2 34 -22 75 -5
8 -11 23 -14 33 -4 9 -10 17 -15 17 -5 0 -9 7 -9 16 0 9 -9 25 -21 35 -11 10
-18 23 -14 28 3 6 5 10 3 10 -2 -1 -11 -3 -20 -6z"/>
<path d="M4210 780 c0 -5 5 -10 10 -10 6 0 10 5 10 10 0 6 -4 10 -10 10 -5 0
-10 -4 -10 -10z"/>
<path d="M1310 771 c0 -6 5 -13 11 -16 6 -4 8 -12 6 -19 -2 -6 7 -21 19 -34
l24 -23 0 26 c0 15 -4 23 -10 20 -6 -3 -7 1 -4 9 3 9 -1 22 -9 31 -17 17 -37
20 -37 6z"/>
<path d="M1480 765 c0 -8 4 -15 10 -15 5 0 7 7 4 15 -4 8 -8 15 -10 15 -2 0
-4 -7 -4 -15z"/>
<path d="M4560 760 c0 -5 5 -10 11 -10 5 0 7 5 4 10 -3 6 -8 10 -11 10 -2 0
-4 -4 -4 -10z"/>
<path d="M1170 750 c0 -5 7 -7 15 -4 8 4 15 8 15 10 0 2 -7 4 -15 4 -8 0 -15
-4 -15 -10z"/>
<path d="M1135 730 c3 -5 8 -10 11 -10 2 0 4 5 4 10 0 6 -5 10 -11 10 -5 0 -7
-4 -4 -10z"/>
<path d="M4224 729 c-3 -6 -1 -16 5 -22 8 -8 11 -5 11 11 0 24 -5 28 -16 11z"/>
<path d="M3453 723 c-15 -5 -17 -23 -4 -23 5 0 11 7 15 15 3 8 4 15 3 14 -1 0
-8 -3 -14 -6z"/>
<path d="M1895 710 c-4 -6 -3 -16 3 -22 13 -13 23 4 13 21 -7 10 -10 10 -16 1z"/>
<path d="M2255 710 c4 -6 11 -8 16 -5 14 9 11 15 -7 15 -8 0 -12 -5 -9 -10z"/>
<path d="M1852 698 c-16 -16 -15 -35 3 -42 11 -4 15 2 15 24 0 34 -1 35 -18
18z"/>
<path d="M3601 694 c0 -11 3 -14 6 -6 3 7 2 16 -1 19 -3 4 -6 -2 -5 -13z"/>
<path d="M5147 703 c-11 -10 -8 -43 3 -43 6 0 10 11 10 25 0 26 -2 29 -13 18z"/>
<path d="M3770 670 c-6 -11 -9 -24 -6 -29 3 -5 -4 -11 -16 -14 -21 -6 -21 -6
5 -33 15 -14 24 -30 21 -35 -3 -5 0 -9 6 -9 8 0 10 9 6 25 -4 14 0 41 9 61 15
35 13 54 -5 54 -5 0 -14 -9 -20 -20z"/>
<path d="M1904 665 c-10 -8 -14 -15 -8 -15 6 0 17 7 24 15 16 19 9 19 -16 0z"/>
<path d="M4240 661 c0 -12 6 -21 15 -21 8 0 15 4 15 9 0 5 -7 14 -15 21 -13
10 -15 9 -15 -9z"/>
<path d="M4950 670 c0 -3 4 -11 9 -19 7 -11 11 -10 19 6 9 15 7 19 -9 19 -10
0 -19 -3 -19 -6z"/>
<path d="M2276 655 c4 -8 8 -15 10 -15 2 0 4 7 4 15 0 8 -4 15 -10 15 -5 0 -7
-7 -4 -15z"/>
<path d="M2320 656 c0 -9 7 -16 16 -16 9 0 14 5 12 12 -6 18 -28 21 -28 4z"/>
<path d="M1046 633 c-15 -15 -23 -29 -17 -31 9 -3 61 44 61 54 0 12 -21 0 -44
-23z"/>
<path d="M1838 633 c-2 -4 -1 -25 2 -45 6 -46 28 -38 32 12 2 25 -1 35 -14 38
-9 2 -18 -1 -20 -5z"/>
<path d="M4351 622 c-1 -13 4 -32 9 -43 8 -15 7 -19 -4 -19 -8 0 -16 3 -19 8
-2 4 -2 1 -1 -5 5 -19 -7 -44 -17 -37 -5 3 -9 -4 -9 -14 0 -15 5 -19 21 -15
14 4 19 12 16 23 -3 12 4 22 19 31 25 13 31 33 13 44 -6 4 -14 17 -19 29 -9
21 -9 21 -9 -2z"/>
<path d="M1533 609 c-24 -11 -43 -25 -43 -31 0 -12 17 -8 73 16 26 11 37 13
37 4 0 -6 2 -9 5 -6 9 8 -6 38 -19 37 -6 0 -30 -9 -53 -20z"/>
<path d="M1925 620 c-3 -5 1 -10 10 -10 9 0 13 5 10 10 -3 6 -8 10 -10 10 -2
0 -7 -4 -10 -10z"/>
<path d="M3685 600 c-3 -5 3 -10 14 -10 12 0 21 5 21 10 0 6 -6 10 -14 10 -8
0 -18 -4 -21 -10z"/>
<path d="M4270 600 c0 -5 5 -10 11 -10 5 0 7 5 4 10 -3 6 -8 10 -11 10 -2 0
-4 -4 -4 -10z"/>
<path d="M1375 590 c3 -5 10 -10 16 -10 5 0 9 5 9 10 0 6 -7 10 -16 10 -8 0
-12 -4 -9 -10z"/>
<path d="M1984 589 c-3 -6 -1 -16 5 -22 8 -8 11 -5 11 11 0 24 -5 28 -16 11z"/>
<path d="M960 578 c-14 -6 -20 -12 -13 -15 7 -2 23 3 35 11 25 18 15 20 -22 4z"/>
<path d="M2340 569 c-8 -14 -9 -24 -2 -31 14 -14 32 -1 32 22 0 28 -17 33 -30
9z"/>
<path d="M2455 581 c-6 -5 -19 -12 -30 -15 -11 -3 -3 -3 18 0 32 4 37 2 37
-16 0 -11 5 -20 10 -20 6 0 10 7 10 15 0 11 7 14 28 10 l27 -6 -25 14 c-38 22
-65 28 -75 18z"/>
<path d="M1640 565 c-11 -13 -10 -14 4 -9 9 3 16 10 16 15 0 13 -6 11 -20 -6z"/>
<path d="M2260 570 c0 -5 5 -10 11 -10 5 0 7 5 4 10 -3 6 -8 10 -11 10 -2 0
-4 -4 -4 -10z"/>
<path d="M912 558 c-14 -14 -16 -28 -3 -28 5 0 11 9 14 20 6 23 5 24 -11 8z"/>
<path d="M1436 558 c3 -4 -7 -19 -21 -32 -29 -27 -26 -46 5 -46 14 0 18 5 13
16 -5 14 -1 15 25 9 35 -7 46 9 12 18 -29 7 -25 25 8 29 24 3 23 4 -10 9 -20
3 -34 1 -32 -3z"/>
<path d="M3600 564 c0 -18 24 -44 41 -44 19 0 19 1 5 16 -9 8 -14 20 -11 25 4
5 -3 9 -14 9 -12 0 -21 -3 -21 -6z"/>
<path d="M3730 564 c0 -3 7 -12 15 -20 13 -13 15 -13 15 -1 0 8 -7 17 -15 21
-8 3 -15 3 -15 0z"/>
<path d="M1888 553 c7 -3 16 -2 19 1 4 3 -2 6 -13 5 -11 0 -14 -3 -6 -6z"/>
<path d="M3543 546 c-26 -12 -29 -33 -9 -58 16 -22 36 -23 36 -3 0 8 -4 15
-10 15 -18 0 -10 19 11 25 11 4 18 12 16 18 -5 15 -18 16 -44 3z"/>
<path d="M5330 550 c0 -5 5 -10 10 -10 6 0 10 -10 10 -22 0 -12 3 -19 6 -15 9
9 -5 57 -16 57 -6 0 -10 -4 -10 -10z"/>
<path d="M1776 542 c-4 -7 -12 -10 -17 -7 -14 9 -22 -21 -11 -41 9 -15 11 -14
27 9 9 15 15 32 13 39 -3 9 -6 9 -12 0z"/>
<path d="M1122 515 c0 -16 2 -22 5 -12 2 9 2 23 0 30 -3 6 -5 -1 -5 -18z"/>
<path d="M1921 524 c0 -11 3 -14 6 -6 3 7 2 16 -1 19 -3 4 -6 -2 -5 -13z"/>
<path d="M2565 520 c-3 -10 -1 -29 6 -41 l11 -22 18 24 18 23 13 -27 c8 -18
20 -27 35 -27 35 0 54 -11 54 -31 0 -12 5 -16 15 -13 8 4 15 1 15 -5 0 -6 7
-11 15 -11 8 0 20 -8 26 -19 7 -10 20 -16 30 -14 9 3 26 0 38 -6 12 -7 21 -8
21 -2 0 5 -7 12 -16 15 -9 4 -14 13 -10 21 3 8 1 15 -4 15 -6 0 -10 9 -10 19
0 10 -7 21 -15 25 -10 3 -15 -1 -15 -13 0 -11 6 -21 13 -24 6 -2 -3 -4 -20 -3
-18 1 -31 6 -29 11 2 6 9 9 15 8 6 -2 11 2 11 7 0 6 -11 10 -24 10 -13 0 -29
7 -36 15 -7 8 -18 15 -26 15 -7 0 -20 7 -28 16 -9 8 -20 12 -26 9 -5 -3 -10
-1 -10 6 0 8 -11 10 -35 6 -19 -3 -35 -2 -35 4 0 5 5 9 10 9 6 0 10 5 10 10 0
18 -29 10 -35 -10z"/>
<path d="M3453 528 c-18 -4 -35 -13 -38 -18 -3 -6 -17 -10 -30 -10 -13 0 -38
-15 -58 -35 -19 -19 -42 -35 -51 -35 -9 0 -16 -4 -16 -10 0 -5 -5 -10 -12 -10
-6 0 -20 -7 -30 -17 -14 -13 -18 -13 -18 -2 -1 10 -4 9 -11 -3 -5 -10 -16 -18
-23 -18 -12 0 -26 -20 -26 -36 0 -10 29 -2 40 11 7 9 15 13 17 11 3 -3 -7 -17
-21 -31 -30 -30 -33 -45 -10 -45 9 0 18 9 21 20 3 11 9 20 14 20 5 0 9 6 9 13
0 7 9 18 20 25 11 7 20 19 20 27 0 16 9 19 49 15 17 -1 22 2 18 13 -3 9 2 17
14 20 10 3 23 16 28 29 7 17 10 18 10 6 1 -10 6 -18 12 -18 6 0 9 6 6 14 -4
10 4 17 24 21 16 4 29 13 29 21 0 8 5 14 10 14 6 0 10 -4 10 -9 0 -6 -4 -13
-10 -16 -5 -3 -10 -12 -10 -20 0 -21 48 5 54 30 7 27 -4 34 -41 23z"/>
<path d="M4740 520 c0 -5 5 -10 11 -10 5 0 7 5 4 10 -3 6 -8 10 -11 10 -2 0
-4 -4 -4 -10z"/>
<path d="M3596 495 c4 -8 11 -15 16 -15 6 0 5 6 -2 15 -7 8 -14 15 -16 15 -2
0 -1 -7 2 -15z"/>
<path d="M1505 490 c-3 -5 -1 -10 4 -10 6 0 11 5 11 10 0 6 -2 10 -4 10 -3 0
-8 -4 -11 -10z"/>
<path d="M2425 490 c-3 -6 2 -10 12 -10 10 0 24 -10 31 -21 10 -15 17 -18 24
-11 8 8 16 4 30 -13 10 -13 27 -27 38 -30 13 -4 17 -13 14 -29 -3 -18 1 -25
17 -29 12 -3 18 -10 14 -16 -4 -7 5 -11 24 -11 19 0 31 -5 31 -13 0 -7 10 -24
21 -36 18 -19 19 -25 8 -33 -10 -7 -8 -8 8 -3 16 4 23 1 28 -15 7 -22 35 -28
35 -7 0 7 -16 30 -35 50 -19 20 -35 43 -35 51 0 7 -9 16 -21 19 -12 3 -18 10
-15 15 3 6 -1 12 -9 16 -8 3 -15 12 -15 21 0 8 -5 15 -11 15 -7 0 -22 11 -35
25 -12 13 -34 27 -48 31 -14 3 -26 10 -26 16 0 5 -4 6 -10 3 -5 -3 -23 1 -39
10 -19 9 -32 11 -36 5z"/>
<path d="M4265 490 c-3 -5 -1 -10 4 -10 6 0 11 5 11 10 0 6 -2 10 -4 10 -3 0
-8 -4 -11 -10z"/>
<path d="M5385 490 c-3 -5 -1 -10 4 -10 6 0 11 5 11 10 0 6 -2 10 -4 10 -3 0
-8 -4 -11 -10z"/>
<path d="M1960 480 c8 -5 22 -9 30 -9 10 0 8 3 -5 9 -27 12 -43 12 -25 0z"/>
<path d="M3921 474 c0 -11 3 -14 6 -6 3 7 2 16 -1 19 -3 4 -6 -2 -5 -13z"/>
<path d="M3737 473 c-10 -16 -5 -75 6 -64 5 5 7 24 5 42 -2 21 -6 29 -11 22z"/>
<path d="M5235 470 c4 -6 11 -8 16 -5 14 9 11 15 -7 15 -8 0 -12 -5 -9 -10z"/>
<path d="M1600 460 c0 -5 5 -10 10 -10 6 0 10 5 10 10 0 6 -4 10 -10 10 -5 0
-10 -4 -10 -10z"/>
<path d="M1653 457 c-13 -5 -23 -14 -23 -19 0 -5 10 -6 23 -2 27 8 30 10 26
22 -3 6 -13 5 -26 -1z"/>
<path d="M3410 460 c0 -5 5 -10 10 -10 6 0 10 5 10 10 0 6 -4 10 -10 10 -5 0
-10 -4 -10 -10z"/>
<path d="M4175 459 c-4 -6 -5 -13 -2 -16 7 -7 27 6 27 18 0 12 -17 12 -25 -2z"/>
<path d="M626 439 c-11 -10 -15 -19 -9 -19 5 0 18 9 28 20 23 26 6 25 -19 -1z"/>
<path d="M1820 450 c0 -5 5 -10 11 -10 5 0 7 5 4 10 -3 6 -8 10 -11 10 -2 0
-4 -4 -4 -10z"/>
<path d="M2167 454 c-9 -10 2 -24 19 -24 8 0 14 7 14 15 0 15 -21 21 -33 9z"/>
<path d="M1860 435 c0 -8 7 -15 16 -15 14 0 14 3 4 15 -7 8 -14 15 -16 15 -2
0 -4 -7 -4 -15z"/>
<path d="M1720 433 c0 -5 5 -15 10 -23 8 -12 10 -11 10 8 0 12 -4 22 -10 22
-5 0 -10 -3 -10 -7z"/>
<path d="M2870 430 c0 -5 9 -10 20 -10 11 0 20 5 20 10 0 6 -9 10 -20 10 -11
0 -20 -4 -20 -10z"/>
<path d="M1685 420 c-3 -5 1 -10 9 -10 9 0 16 5 16 10 0 6 -4 10 -9 10 -6 0
-13 -4 -16 -10z"/>
<path d="M5403 423 c-25 -5 -30 -19 -10 -26 9 -3 9 -9 -1 -26 -7 -12 -8 -21
-2 -21 5 0 10 5 10 10 0 6 10 10 22 10 17 0 19 3 10 12 -18 18 -14 30 8 23 24
-7 27 10 4 19 -9 3 -16 5 -17 5 -1 -1 -12 -4 -24 -6z"/>
<path d="M3051 394 c-14 -32 -14 -41 0 -27 6 6 17 9 24 6 10 -3 12 2 8 16 -8
32 -19 33 -32 5z"/>
<path d="M3680 410 c-13 -8 -12 -10 3 -10 9 0 17 5 17 10 0 12 -1 12 -20 0z"/>
<path d="M582 383 c-20 -18 -39 -63 -26 -63 4 0 13 8 21 18 14 16 14 16 9 0
-3 -10 0 -18 5 -18 7 0 9 9 6 22 -4 12 -1 28 5 35 17 21 3 25 -20 6z"/>
<path d="M2948 379 c-28 -16 -21 -25 23 -26 33 -2 40 1 37 15 -4 20 -36 26
-60 11z"/>
<path d="M4340 380 c0 -5 5 -10 10 -10 6 0 10 5 10 10 0 6 -4 10 -10 10 -5 0
-10 -4 -10 -10z"/>
<path d="M1892 350 c14 -40 23 -45 48 -20 29 29 25 44 -6 23 -26 -17 -27 -17
-20 5 6 18 3 22 -13 22 -18 0 -19 -3 -9 -30z"/>
<path d="M2886 344 c-6 -24 -10 -26 -44 -21 -20 3 -29 3 -19 1 9 -3 17 -11 17
-18 0 -7 8 -21 19 -30 18 -16 19 -15 25 19 5 26 12 35 27 35 17 0 18 3 7 20
-17 27 -25 25 -32 -6z"/>
<path d="M2157 328 c-4 -12 -4 -24 -2 -27 3 -2 5 1 5 7 0 6 6 9 14 6 11 -4 13
0 9 15 -7 27 -19 27 -26 -1z"/>
<path d="M1468 318 c2 -10 9 -18 16 -18 6 0 16 8 23 18 9 16 7 18 -17 18 -21
0 -26 -3 -22 -18z"/>
<path d="M3085 307 c-11 -7 -26 -20 -33 -30 -8 -11 -21 -16 -32 -12 -10 3 -21
1 -25 -5 -3 -5 0 -10 9 -10 8 0 21 -3 30 -6 9 -3 25 4 39 20 13 14 29 26 34
26 6 0 16 7 23 15 10 12 9 15 -6 14 -11 0 -28 -6 -39 -12z"/>
<path d="M4225 310 c3 -5 8 -10 11 -10 2 0 4 5 4 10 0 6 -5 10 -11 10 -5 0 -7
-4 -4 -10z"/>
<path d="M2241 294 c0 -11 3 -14 6 -6 3 7 2 16 -1 19 -3 4 -6 -2 -5 -13z"/>
<path d="M1890 291 c0 -5 6 -11 13 -14 9 -3 8 -8 -3 -22 -13 -17 -13 -18 1
-13 11 4 15 0 15 -16 -1 -14 6 -22 22 -24 12 -2 22 2 22 8 0 6 -4 9 -9 5 -5
-3 -12 -1 -16 5 -9 14 4 52 16 45 5 -4 9 -2 9 4 0 13 -14 21 -45 27 -14 2 -25
0 -25 -5z"/>
<path d="M3550 290 c-9 -6 -10 -10 -3 -10 6 0 15 5 18 10 8 12 4 12 -15 0z"/>
<path d="M490 265 c-41 -40 -51 -55 -45 -65 3 -5 0 -7 -8 -4 -8 3 -20 -2 -27
-11 -7 -8 -10 -15 -7 -15 2 0 -12 -19 -33 -42 -36 -38 -64 -102 -35 -78 7 6
15 6 23 -2 8 -8 20 2 44 37 18 26 40 55 48 65 8 10 26 33 40 51 14 17 33 40
43 51 18 19 15 38 -6 38 -7 0 -23 -11 -37 -25z"/>
<path d="M1433 266 c1 -11 9 -21 17 -23 10 -3 11 -2 4 4 -6 4 -14 15 -17 23
-5 11 -6 9 -4 -4z"/>
<path d="M3110 270 c0 -5 5 -10 11 -10 5 0 7 5 4 10 -3 6 -8 10 -11 10 -2 0
-4 -4 -4 -10z"/>
<path d="M3460 265 c0 -9 5 -15 11 -13 6 2 11 8 11 13 0 5 -5 11 -11 13 -6 2
-11 -4 -11 -13z"/>
<path d="M5255 270 c-3 -5 1 -10 9 -10 9 0 16 5 16 10 0 6 -4 10 -9 10 -6 0
-13 -4 -16 -10z"/>
<path d="M615 260 c-3 -5 1 -10 9 -10 9 0 16 5 16 10 0 6 -4 10 -9 10 -6 0
-13 -4 -16 -10z"/>
<path d="M3872 258 c6 -18 28 -21 28 -4 0 9 -7 16 -16 16 -9 0 -14 -5 -12 -12z"/>
<path d="M2890 250 c0 -5 5 -10 10 -10 6 0 10 5 10 10 0 6 -4 10 -10 10 -5 0
-10 -4 -10 -10z"/>
<path d="M5040 228 c0 -8 7 -21 15 -28 19 -16 19 -1 0 24 -12 16 -15 17 -15 4z"/>
<path d="M2945 223 c-20 -5 -44 -31 -45 -47 0 -4 10 -6 22 -3 12 3 30 1 41 -4
25 -14 37 -1 30 34 -5 27 -10 29 -48 20z"/>
<path d="M5670 220 c0 -5 7 -7 15 -4 8 4 17 -1 21 -10 3 -9 14 -16 23 -15 10
0 11 2 4 6 -7 2 -13 11 -13 19 0 8 -10 14 -25 14 -14 0 -25 -4 -25 -10z"/>
<path d="M591 204 c0 -11 3 -14 6 -6 3 7 2 16 -1 19 -3 4 -6 -2 -5 -13z"/>
<path d="M945 210 c-3 -6 -2 -10 4 -10 5 0 11 -10 13 -22 3 -22 4 -22 9 -3 6
22 -16 52 -26 35z"/>
<path d="M3200 209 c0 -5 5 -7 10 -4 6 3 10 8 10 11 0 2 -4 4 -10 4 -5 0 -10
-5 -10 -11z"/>
<path d="M3136 193 c-4 -9 -2 -21 4 -27 7 -7 10 -2 10 17 0 31 -5 34 -14 10z"/>
<path d="M5440 195 c0 -8 7 -15 15 -15 8 0 15 4 15 9 0 5 -7 11 -15 15 -9 3
-15 0 -15 -9z"/>
<path d="M5625 190 c-3 -5 1 -10 10 -10 9 0 13 5 10 10 -3 6 -8 10 -10 10 -2
0 -7 -4 -10 -10z"/>
<path d="M737 175 c6 -17 25 -15 31 3 2 7 -5 12 -17 12 -14 0 -19 -5 -14 -15z"/>
<path d="M1297 170 c-3 -11 -1 -20 4 -20 5 0 9 9 9 20 0 11 -2 20 -4 20 -2 0
-6 -9 -9 -20z"/>
<path d="M5536 177 c3 -10 9 -15 12 -12 3 3 0 11 -7 18 -10 9 -11 8 -5 -6z"/>
<path d="M590 158 c0 -10 7 -18 15 -18 20 0 19 -12 -5 -43 -11 -14 -20 -30
-20 -36 0 -18 20 -13 27 7 4 9 10 19 13 22 4 3 10 18 14 33 5 20 3 27 -5 22
-7 -5 -9 -1 -5 12 5 14 1 19 -14 19 -13 0 -20 -7 -20 -18z"/>
<path d="M4400 159 c0 -18 2 -19 15 -9 15 12 12 30 -6 30 -5 0 -9 -10 -9 -21z"/>
<path d="M5674 169 c1 -7 12 -16 25 -20 14 -6 20 -5 16 1 -3 6 -12 10 -20 10
-7 0 -16 5 -18 10 -3 6 -4 5 -3 -1z"/>
<path d="M5757 165 c-4 -8 -2 -17 3 -20 6 -4 10 3 10 14 0 25 -6 27 -13 6z"/>
<path d="M5810 153 c0 -22 2 -25 10 -13 13 20 13 40 0 40 -5 0 -10 -12 -10
-27z"/>
<path d="M6392 160 c0 -14 2 -19 5 -12 2 6 2 18 0 25 -3 6 -5 1 -5 -13z"/>
<path d="M1513 162 c-8 -5 -4 -16 13 -35 21 -25 26 -27 39 -13 19 19 19 26 0
26 -8 0 -15 4 -15 9 0 5 10 7 23 5 20 -4 21 -4 2 5 -25 12 -46 13 -62 3z"/>
<path d="M3836 137 c1 -34 15 -45 32 -24 9 11 7 18 -11 35 l-22 21 1 -32z"/>
<path d="M760 128 c0 -36 4 -35 14 5 4 16 2 27 -4 27 -5 0 -10 -14 -10 -32z"/>
<path d="M820 150 c0 -5 4 -10 9 -10 6 0 13 5 16 10 3 6 -1 10 -9 10 -9 0 -16
-4 -16 -10z"/>
<path d="M1996 145 c4 -8 11 -15 16 -15 6 0 5 6 -2 15 -7 8 -14 15 -16 15 -2
0 -1 -7 2 -15z"/>
<path d="M2884 146 c-20 -22 -25 -51 -12 -69 10 -13 19 -15 43 -8 27 8 19 16
-12 12 -7 -1 -13 5 -13 13 0 9 6 13 15 10 11 -5 14 1 12 25 -2 33 -14 39 -33
17z"/>
<path d="M5430 145 c14 -17 40 -20 40 -4 0 5 -4 8 -9 4 -5 -3 -12 -1 -16 5 -3
5 -11 10 -17 10 -7 0 -6 -6 2 -15z"/>
<path d="M1425 140 c-3 -5 -1 -10 4 -10 6 0 11 5 11 10 0 6 -2 10 -4 10 -3 0
-8 -4 -11 -10z"/>
<path d="M1940 136 c0 -8 6 -16 14 -19 10 -4 12 0 9 14 -6 22 -23 26 -23 5z"/>
<path d="M2145 140 c-3 -5 -1 -10 4 -10 6 0 11 5 11 10 0 6 -2 10 -4 10 -3 0
-8 -4 -11 -10z"/>
<path d="M2980 125 c0 -14 5 -25 10 -25 6 0 10 11 10 25 0 14 -4 25 -10 25 -5
0 -10 -11 -10 -25z"/>
<path d="M5332 138 c6 -18 28 -21 28 -4 0 9 -7 16 -16 16 -9 0 -14 -5 -12 -12z"/>
<path d="M5665 125 c8 -37 25 -57 25 -29 0 11 -7 29 -16 40 -15 18 -15 18 -9
-11z"/>
<path d="M5840 120 c0 -10 7 -25 16 -32 48 -39 64 -61 53 -74 -9 -12 -2 -14
42 -14 l53 0 -74 70 c-41 39 -77 70 -82 70 -4 0 -8 -9 -8 -20z"/>
<path d="M470 120 c0 -5 5 -10 10 -10 6 0 10 5 10 10 0 6 -4 10 -10 10 -5 0
-10 -4 -10 -10z"/>
<path d="M575 120 c-3 -5 -1 -10 4 -10 6 0 11 5 11 10 0 6 -2 10 -4 10 -3 0
-8 -4 -11 -10z"/>
<path d="M1061 114 c0 -11 3 -14 6 -6 3 7 2 16 -1 19 -3 4 -6 -2 -5 -13z"/>
<path d="M1921 94 c0 -11 3 -14 6 -6 3 7 2 16 -1 19 -3 4 -6 -2 -5 -13z"/>
<path d="M5450 88 c-18 -8 -21 -12 -10 -15 8 -3 20 -12 27 -20 14 -18 22 -5
14 23 -5 18 -10 20 -31 12z"/>
<path d="M286 81 c-15 -6 -16 -9 -5 -13 8 -3 20 1 27 8 14 15 7 17 -22 5z"/>
<path d="M436 65 c-9 -13 -16 -29 -16 -35 0 -5 -4 -10 -10 -10 -5 0 -10 -4
-10 -10 0 -5 14 -10 32 -10 24 0 29 3 21 11 -12 12 2 57 22 71 6 5 3 8 -6 8
-9 0 -24 -11 -33 -25z"/>
<path d="M1510 74 c0 -8 5 -12 10 -9 6 4 8 11 5 16 -9 14 -15 11 -15 -7z"/>
<path d="M5067 83 c-14 -14 -6 -20 19 -15 19 3 22 7 12 13 -16 11 -23 11 -31
2z"/>
<path d="M5632 81 c2 -7 7 -12 11 -12 12 1 9 15 -3 20 -7 2 -11 -2 -8 -8z"/>
<path d="M700 74 c8 -4 17 -10 20 -14 9 -14 53 -15 57 -2 3 7 -4 12 -19 12
-12 0 -34 3 -48 5 -14 3 -18 2 -10 -1z"/>
<path d="M1718 73 c6 -2 12 -20 12 -39 0 -22 5 -34 14 -34 12 0 14 23 7 73 -1
4 -11 7 -23 6 -13 0 -17 -3 -10 -6z"/>
<path d="M2820 70 c0 -5 5 -10 10 -10 6 0 10 5 10 10 0 6 -4 10 -10 10 -5 0
-10 -4 -10 -10z"/>
<path d="M2960 70 c0 -5 -13 -10 -30 -10 -21 0 -30 -5 -30 -16 0 -25 69 -14
88 14 13 20 13 22 -7 22 -11 0 -21 -4 -21 -10z"/>
<path d="M5008 73 c6 -2 18 -2 25 0 6 3 1 5 -13 5 -14 0 -19 -2 -12 -5z"/>
<path d="M5278 73 c7 -3 16 -2 19 1 4 3 -2 6 -13 5 -11 0 -14 -3 -6 -6z"/>
<path d="M6321 66 c-1 -12 -6 -16 -17 -12 -9 4 -13 2 -8 -5 4 -6 0 -15 -7 -20
-17 -10 -11 -15 24 -24 30 -8 33 4 17 55 -6 19 -8 20 -9 6z"/>
<path d="M1856 55 c-11 -8 -17 -17 -15 -20 7 -6 59 18 59 28 0 12 -23 8 -44
-8z"/>
<path d="M3935 60 c-8 -13 4 -32 16 -25 12 8 12 35 0 35 -6 0 -13 -4 -16 -10z"/>
<path d="M4468 39 c-3 -9 -2 -22 2 -30 13 -19 18 -8 10 21 -4 19 -7 21 -12 9z"/>
<path d="M5090 40 c0 -5 7 -10 15 -10 8 0 15 5 15 10 0 6 -7 10 -15 10 -8 0
-15 -4 -15 -10z"/>
<path d="M5718 38 c9 -9 15 -9 24 0 9 9 7 12 -12 12 -19 0 -21 -3 -12 -12z"/>
<path d="M5780 39 c0 -5 5 -7 10 -4 6 3 10 8 10 11 0 2 -4 4 -10 4 -5 0 -10
-5 -10 -11z"/>
<path d="M5512 20 c0 -14 2 -19 5 -12 2 6 2 18 0 25 -3 6 -5 1 -5 -13z"/>
<path d="M317 17 c-5 -13 -1 -17 18 -17 16 0 25 6 25 16 0 13 -3 14 -14 5 -11
-9 -15 -9 -18 1 -3 8 -7 6 -11 -5z"/>
<path d="M574 15 c-18 -13 -16 -14 20 -15 33 0 37 2 26 15 -15 19 -21 19 -46
0z"/>
<path d="M1540 15 c0 -8 4 -15 10 -15 5 0 7 7 4 15 -4 8 -8 15 -10 15 -2 0 -4
-7 -4 -15z"/>
<path d="M1590 15 c0 -8 7 -15 16 -15 14 0 14 3 4 15 -7 8 -14 15 -16 15 -2 0
-4 -7 -4 -15z"/>
<path d="M1870 20 c0 -5 5 -10 10 -10 6 0 10 5 10 10 0 6 -4 10 -10 10 -5 0
-10 -4 -10 -10z"/>
<path d="M2466 22 c-3 -6 1 -13 10 -16 23 -9 28 -2 10 13 -8 7 -17 8 -20 3z"/>
<path d="M3111 14 c0 -11 3 -14 6 -6 3 7 2 16 -1 19 -3 4 -6 -2 -5 -13z"/>
<path d="M3136 21 c-4 -7 -5 -15 -2 -18 9 -9 19 4 14 18 -4 11 -6 11 -12 0z"/>
<path d="M4896 15 c-3 -9 0 -15 9 -15 9 0 12 6 9 15 -4 8 -7 15 -9 15 -2 0 -5
-7 -9 -15z"/>
<path d="M5530 20 c0 -5 7 -10 15 -10 8 0 15 5 15 10 0 6 -7 10 -15 10 -8 0
-15 -4 -15 -10z"/>
<path d="M6070 20 c-8 -5 -11 -13 -6 -17 5 -4 11 -2 13 5 4 10 8 10 19 1 11
-9 14 -8 14 5 0 18 -17 21 -40 6z"/>
<path d="M645 10 c-3 -5 3 -10 15 -10 12 0 18 5 15 10 -3 6 -10 10 -15 10 -5
0 -12 -4 -15 -10z"/>
<path d="M3820 10 c0 -5 5 -10 10 -10 6 0 10 5 10 10 0 6 -4 10 -10 10 -5 0
-10 -4 -10 -10z"/>
<path d="M5440 10 c0 -5 5 -10 11 -10 5 0 7 5 4 10 -3 6 -8 10 -11 10 -2 0 -4
-4 -4 -10z"/>
<path d="M38 3 c7 -3 16 -2 19 1 4 3 -2 6 -13 5 -11 0 -14 -3 -6 -6z"/>
</g>
</svg>
